<?xml version="1.0" encoding="UTF-8" ?>
<!DOCTYPE svg PUBLIC "-//W3C//DTD SVG 1.1//EN" "http://www.w3.org/Graphics/SVG/1.1/DTD/svg11.dtd">
<svg width="1944pt" height="817pt" viewBox="0 0 1944 817" version="1.1" xmlns="http://www.w3.org/2000/svg">
<g id="#ffffffff">
<path fill="#ffffff" opacity="1.00" d=" M 109.54 57.79 C 113.01 57.23 116.52 56.99 120.03 57.00 C 676.69 57.00 1233.34 57.00 1790.00 57.00 C 1801.65 57.17 1813.63 56.02 1824.87 59.82 C 1847.94 66.76 1865.79 88.14 1868.31 112.13 C 1869.21 122.03 1868.54 132.01 1868.75 141.95 C 1868.75 329.63 1868.75 517.31 1868.75 704.99 C 1868.83 713.94 1867.01 722.91 1863.34 731.09 C 1853.83 752.98 1830.88 768.17 1806.97 768.11 C 1244.65 768.14 682.32 768.11 120.00 768.13 C 105.34 768.30 90.71 763.07 79.49 753.64 C 65.48 742.08 56.98 724.18 57.00 706.01 C 56.99 510.68 57.01 315.34 57.00 120.00 C 56.84 105.59 61.87 91.20 71.02 80.06 C 80.56 68.26 94.54 60.14 109.54 57.79 M 1379.74 134.75 C 1348.57 145.55 1322.96 169.42 1307.09 198.02 C 1289.09 230.39 1282.74 268.26 1284.67 304.96 C 1286.84 338.83 1296.48 372.91 1316.13 400.90 C 1334.31 426.93 1361.87 446.61 1392.92 453.85 C 1415.54 459.06 1439.05 458.01 1461.92 455.07 C 1480.10 452.83 1498.08 448.25 1514.75 440.56 C 1514.73 409.59 1514.83 378.62 1514.70 347.66 C 1509.76 355.07 1505.12 362.68 1500.07 370.01 C 1490.99 383.03 1480.80 395.35 1469.00 406.00 C 1459.59 414.35 1449.22 422.35 1436.86 425.62 C 1427.09 428.33 1416.19 426.90 1407.62 421.44 C 1399.50 416.30 1393.37 408.62 1388.34 400.55 C 1378.77 384.79 1373.48 366.84 1370.11 348.83 C 1363.18 310.01 1363.37 269.85 1371.24 231.19 C 1375.43 211.65 1381.78 192.05 1393.70 175.77 C 1401.41 165.16 1413.72 157.61 1426.99 157.15 C 1438.88 156.84 1450.23 161.68 1460.19 167.80 C 1475.59 176.84 1489.09 188.72 1501.59 201.39 C 1506.08 205.78 1509.92 210.82 1514.71 214.92 C 1514.82 188.34 1514.73 161.76 1514.76 135.17 C 1501.75 137.80 1488.88 141.09 1476.01 144.32 C 1460.99 134.14 1443.22 127.99 1425.09 127.07 C 1409.62 126.21 1394.28 129.77 1379.74 134.75 M 701.20 133.11 C 704.89 147.19 707.37 161.57 709.07 176.03 C 714.27 221.83 713.81 268.01 713.75 314.04 C 713.60 341.98 712.83 369.96 710.20 397.80 C 708.37 415.97 705.94 434.17 701.16 451.83 C 732.07 451.97 762.99 451.91 793.90 451.86 C 788.29 429.66 784.87 406.92 783.62 384.05 C 782.33 358.77 781.70 333.45 781.24 308.14 C 800.25 308.32 816.30 321.60 825.84 337.14 C 835.64 353.52 840.68 372.10 846.71 390.06 C 851.27 404.89 855.54 420.30 854.31 435.97 C 853.95 441.67 851.60 446.99 848.83 451.90 C 885.43 451.86 922.03 452.02 958.63 451.81 C 953.95 447.32 949.03 443.07 944.96 438.01 C 934.10 425.41 927.61 409.89 921.23 394.73 C 913.78 376.96 908.56 358.39 902.73 340.05 C 898.38 326.44 890.68 313.47 879.11 304.81 C 875.93 302.28 872.23 300.58 868.88 298.34 C 884.48 293.63 899.56 285.82 910.55 273.55 C 922.89 259.78 930.20 241.49 930.16 222.94 C 930.47 210.39 929.00 197.60 924.16 185.92 C 919.30 173.55 910.49 162.81 899.21 155.76 C 882.45 145.21 863.10 139.16 843.50 136.78 C 796.31 130.77 748.64 133.05 701.20 133.11 M 1084.08 133.16 C 1093.32 140.44 1101.47 149.08 1107.87 158.98 C 1083.06 231.28 1058.50 303.67 1033.96 376.06 C 1030.81 384.85 1028.45 393.98 1024.14 402.32 C 1016.76 417.32 1006.53 430.93 994.02 442.04 C 989.87 445.73 985.05 448.56 980.56 451.81 C 1008.92 452.01 1037.29 451.89 1065.65 451.87 C 1061.99 445.98 1058.65 439.75 1057.49 432.83 C 1054.50 416.15 1057.98 399.11 1063.15 383.22 C 1066.13 374.33 1069.21 365.47 1072.63 356.75 C 1109.97 357.14 1147.34 356.46 1184.68 357.10 C 1191.23 378.50 1200.44 399.39 1202.44 421.91 C 1203.41 432.08 1202.65 443.02 1196.84 451.75 C 1205.88 451.96 1214.93 451.96 1223.99 451.91 C 1254.88 451.83 1285.77 452.03 1316.66 451.83 C 1307.77 444.56 1299.46 436.41 1293.45 426.55 C 1282.51 409.31 1276.52 389.63 1269.46 370.63 C 1261.81 348.81 1254.38 326.91 1246.84 305.06 C 1233.69 265.46 1219.82 226.10 1206.66 186.50 C 1200.61 168.67 1194.28 150.93 1188.32 133.07 C 1153.57 133.13 1118.82 132.98 1084.08 133.16 M 1560.54 133.10 C 1564.56 147.96 1567.06 163.20 1568.77 178.49 C 1574.09 224.46 1573.02 270.81 1573.13 317.00 C 1572.99 342.33 1572.42 367.68 1570.13 392.91 C 1568.29 412.74 1565.84 432.61 1560.49 451.84 C 1631.87 452.01 1703.25 451.84 1774.63 451.93 C 1774.78 419.94 1774.86 387.94 1774.59 355.95 C 1766.89 366.91 1758.28 377.39 1747.77 385.79 C 1733.65 397.40 1716.67 405.01 1699.25 410.15 C 1682.18 415.04 1664.47 417.94 1646.69 417.82 C 1641.12 376.46 1640.85 334.64 1640.64 292.98 C 1651.20 293.66 1661.74 295.01 1672.07 297.33 C 1689.46 301.20 1706.85 307.48 1720.52 319.24 C 1725.71 323.38 1729.84 328.61 1734.30 333.50 C 1734.41 299.32 1734.42 265.15 1734.30 230.97 C 1725.29 241.92 1714.20 251.28 1701.24 257.19 C 1682.21 265.80 1661.37 269.72 1640.63 271.12 C 1640.62 235.60 1640.62 200.08 1640.63 164.56 C 1674.41 164.79 1709.22 170.13 1739.00 186.91 C 1751.35 193.63 1761.98 203.16 1770.70 214.13 C 1771.02 187.13 1770.71 160.13 1770.86 133.13 C 1700.75 133.03 1630.65 133.08 1560.54 133.10 M 191.00 183.02 C 170.29 204.38 155.90 231.74 149.83 260.86 C 146.47 275.67 146.68 290.98 147.15 306.08 C 150.12 350.62 173.49 393.16 209.02 420.08 C 222.41 430.50 237.68 438.23 253.42 444.39 C 259.83 446.37 266.37 447.89 272.87 449.56 C 295.51 454.22 319.20 453.97 341.70 448.69 C 343.95 447.95 346.26 447.42 348.63 447.33 C 360.47 443.72 371.88 438.78 382.76 432.81 C 414.08 415.28 439.36 387.02 452.78 353.69 C 468.70 315.15 468.42 270.31 452.22 231.91 C 442.38 208.28 426.71 187.10 406.96 170.82 C 381.96 149.96 350.42 137.01 317.92 134.70 C 307.92 134.24 297.87 134.31 287.90 135.15 C 251.30 139.06 216.40 156.41 191.00 183.02 M 485.79 296.07 C 486.27 338.42 471.07 380.59 444.28 413.33 C 435.18 424.91 424.13 434.73 412.78 444.04 C 414.40 463.35 419.67 482.34 428.23 499.72 C 432.52 508.87 438.36 517.12 443.86 525.55 C 457.54 517.01 470.61 507.45 482.51 496.55 C 495.25 484.60 507.54 472.06 517.82 457.89 C 552.77 411.69 571.73 353.89 571.75 296.02 C 543.10 296.13 514.45 296.05 485.79 296.07 M 361.97 468.54 C 358.59 468.92 355.74 470.91 352.47 471.65 C 339.26 475.24 325.70 477.96 311.98 478.23 C 309.80 478.18 307.64 478.46 305.49 478.78 C 313.59 519.43 330.50 558.41 355.75 591.37 C 395.99 644.40 456.40 682.07 522.08 693.54 C 539.31 696.61 556.80 698.61 574.32 697.61 C 574.30 669.70 574.31 641.78 574.30 613.87 C 534.93 614.65 495.53 602.30 463.44 579.53 C 437.99 561.28 417.05 536.69 403.56 508.39 C 396.13 492.31 390.11 475.27 388.33 457.56 C 379.53 461.14 371.13 465.85 361.97 468.54 M 1147.51 489.64 C 1136.15 492.04 1125.81 498.43 1118.13 507.07 C 1105.95 520.87 1100.68 539.77 1101.39 557.95 C 1101.79 572.37 1105.79 586.94 1114.31 598.72 C 1123.44 611.60 1138.36 620.13 1154.10 621.41 C 1172.83 623.17 1191.93 614.13 1202.84 598.89 C 1212.89 584.83 1216.57 567.04 1215.57 549.99 C 1214.72 532.58 1207.90 515.04 1195.00 503.03 C 1182.64 491.12 1164.27 485.99 1147.51 489.64 M 745.38 491.00 C 748.87 494.13 752.25 497.46 754.78 501.45 C 744.91 529.81 735.36 558.28 725.69 586.70 C 723.88 591.77 722.51 597.05 719.81 601.75 C 715.91 608.92 710.25 615.16 703.30 619.49 C 714.75 619.37 726.20 619.58 737.65 619.37 C 735.58 615.92 734.01 612.07 734.01 607.99 C 733.57 598.60 737.50 589.89 740.35 581.17 C 755.44 580.94 770.54 581.02 785.64 581.13 C 787.32 586.40 789.34 591.56 790.82 596.89 C 792.85 604.20 794.50 612.45 790.78 619.51 C 806.83 619.41 822.87 619.47 838.92 619.47 C 830.26 612.99 825.57 602.90 822.14 592.95 C 810.17 559.08 798.90 524.97 787.27 490.99 C 773.30 490.96 759.34 490.93 745.38 491.00 M 856.19 490.96 C 861.00 499.47 863.08 509.32 862.87 519.05 C 862.86 541.34 862.80 563.65 862.89 585.94 C 862.99 595.31 867.71 604.23 874.89 610.13 C 885.10 618.66 898.86 621.86 911.93 621.57 C 924.39 621.07 937.39 617.49 946.67 608.78 C 952.97 602.96 957.13 594.63 957.04 585.96 C 957.06 564.65 957.04 543.33 957.03 522.02 C 956.85 511.36 958.11 500.19 963.89 490.97 C 949.86 490.96 935.82 490.97 921.79 490.96 C 926.31 498.49 928.37 507.31 928.44 516.05 C 928.35 535.70 928.41 555.35 928.40 574.99 C 928.48 583.76 928.69 593.26 923.76 600.94 C 918.37 609.86 903.96 610.69 897.47 602.60 C 892.40 596.27 891.71 587.78 891.53 579.99 C 891.48 562.65 891.50 545.32 891.51 527.99 C 891.21 515.41 891.33 502.04 898.13 490.96 C 884.15 490.97 870.17 490.96 856.19 490.96 M 981.13 490.97 C 981.12 501.78 981.11 512.58 981.14 523.39 C 989.84 512.60 1003.34 506.96 1016.75 504.82 C 1019.04 523.11 1019.07 541.57 1018.96 559.97 C 1018.95 579.87 1018.68 600.01 1014.01 619.46 C 1026.42 619.46 1038.84 619.45 1051.26 619.46 C 1047.24 604.34 1046.61 588.59 1046.44 573.02 C 1046.15 550.27 1045.58 527.39 1048.64 504.78 C 1062.04 507.02 1075.51 512.63 1084.25 523.42 C 1084.19 512.62 1084.20 501.83 1084.24 491.04 C 1049.87 490.87 1015.50 491.01 981.13 490.97 M 1276.73 490.97 C 1282.07 511.87 1281.53 533.61 1281.89 555.02 C 1281.50 576.53 1282.11 598.39 1276.70 619.39 C 1289.16 619.52 1301.62 619.46 1314.08 619.43 C 1308.78 598.73 1309.02 577.20 1309.04 555.99 C 1308.98 534.26 1308.75 512.21 1313.98 490.97 C 1301.56 490.97 1289.14 490.96 1276.73 490.97 M 1331.25 490.97 C 1334.31 494.69 1337.02 498.76 1338.62 503.35 C 1344.59 519.18 1344.63 536.36 1345.04 553.04 C 1345.30 569.30 1344.87 585.82 1340.41 601.57 C 1338.61 608.12 1335.67 614.44 1331.07 619.52 C 1342.96 619.40 1354.85 619.49 1366.74 619.47 C 1362.55 613.73 1359.72 606.98 1358.86 599.92 C 1356.54 585.39 1357.36 570.64 1357.21 555.99 C 1357.12 544.87 1357.41 533.75 1357.53 522.63 C 1367.83 534.21 1375.35 547.92 1382.52 561.57 C 1391.76 579.81 1400.23 598.91 1402.60 619.43 C 1418.18 619.49 1433.76 619.44 1449.34 619.47 C 1447.71 617.13 1446.09 614.79 1444.84 612.24 C 1440.17 603.23 1440.49 592.79 1439.78 582.94 C 1439.67 562.59 1438.96 542.13 1441.48 521.88 C 1443.16 510.95 1445.89 499.55 1453.32 490.98 C 1441.51 490.95 1429.71 490.98 1417.90 490.96 C 1422.40 496.74 1424.93 503.82 1425.98 511.02 C 1427.68 522.95 1427.19 535.04 1427.34 547.05 C 1427.69 557.86 1427.51 568.69 1426.81 579.49 C 1410.77 550.00 1394.55 520.60 1378.65 491.03 C 1362.85 490.88 1347.05 491.01 1331.25 490.97 M 1470.93 490.97 C 1475.98 511.23 1475.91 532.27 1475.88 553.01 C 1475.69 575.19 1476.38 597.74 1470.93 619.42 C 1480.95 619.51 1490.98 619.44 1501.01 619.46 C 1509.17 619.36 1517.43 619.96 1525.47 618.26 C 1536.86 615.85 1547.44 609.78 1555.23 601.13 C 1565.11 590.18 1570.73 575.69 1571.65 561.04 C 1572.90 545.21 1569.38 528.79 1560.38 515.58 C 1550.32 500.79 1532.94 491.06 1514.98 490.93 C 1500.30 491.00 1485.61 490.95 1470.93 490.97 M 1589.14 490.97 C 1594.37 512.56 1594.13 534.92 1594.18 556.98 C 1594.05 577.84 1594.21 599.00 1589.05 619.36 C 1601.50 619.50 1613.95 619.56 1626.40 619.32 C 1621.17 598.64 1621.37 577.14 1621.32 555.95 C 1621.34 534.23 1621.08 512.20 1626.36 490.98 C 1613.95 490.96 1601.55 490.96 1589.14 490.97 M 1685.20 490.96 C 1688.82 494.06 1692.56 497.29 1694.66 501.68 C 1684.06 532.76 1673.45 563.83 1662.97 594.95 C 1659.22 604.88 1652.44 613.81 1643.42 619.50 C 1654.84 619.36 1666.27 619.58 1677.71 619.39 C 1675.85 616.24 1674.24 612.83 1674.14 609.11 C 1673.34 599.32 1677.39 590.15 1680.46 581.10 C 1695.55 581.03 1710.64 580.96 1725.74 581.14 C 1728.24 589.33 1731.69 597.29 1732.77 605.85 C 1733.48 610.47 1732.99 615.32 1730.83 619.51 C 1746.87 619.43 1762.91 619.42 1778.95 619.51 C 1769.18 612.18 1764.64 600.35 1760.81 589.19 C 1749.42 556.53 1738.50 523.71 1727.27 490.99 C 1713.24 490.93 1699.22 490.98 1685.20 490.96 M 703.60 656.46 C 705.49 658.68 707.16 661.13 708.03 663.96 C 710.57 671.93 712.94 679.96 715.46 687.95 C 716.57 691.00 716.84 694.27 716.19 697.47 C 720.38 697.33 724.58 697.31 728.78 697.48 C 728.34 695.33 728.17 693.10 728.90 691.00 C 731.65 682.03 734.36 673.06 737.17 664.11 C 738.05 661.04 740.32 658.68 742.56 656.51 C 739.18 656.58 735.82 656.58 732.45 656.51 C 733.25 658.89 733.90 661.46 733.07 663.94 C 730.30 673.34 727.37 682.68 724.53 692.05 C 721.60 682.70 718.72 673.33 715.90 663.95 C 715.04 661.52 715.31 658.95 715.77 656.49 C 711.71 656.60 707.65 656.61 703.60 656.46 M 756.62 656.77 C 741.44 662.81 740.16 686.85 753.44 695.59 C 760.20 700.08 770.16 698.69 775.42 692.49 C 782.46 684.31 782.65 671.31 776.36 662.65 C 771.99 656.69 763.55 653.98 756.62 656.77 M 808.45 660.46 C 802.26 666.43 800.81 675.97 802.98 684.04 C 804.55 690.17 809.18 695.73 815.41 697.43 C 820.80 698.67 826.55 698.00 831.66 695.92 C 831.55 692.01 831.62 688.10 831.61 684.19 C 828.65 687.93 825.68 692.20 820.99 693.87 C 818.11 694.90 815.04 692.92 813.72 690.41 C 810.00 683.52 810.15 675.23 811.82 667.78 C 812.75 664.15 814.82 659.83 819.02 659.37 C 824.20 659.53 828.01 663.56 831.64 666.79 C 831.60 663.43 831.60 660.08 831.61 656.73 C 830.00 657.08 828.40 657.42 826.81 657.77 C 821.00 654.16 813.13 655.72 808.45 660.46 M 897.44 656.62 C 881.77 662.37 880.38 687.25 894.20 695.81 C 900.93 700.05 910.42 698.58 915.68 692.67 C 923.01 684.27 923.16 670.61 916.19 661.94 C 911.83 656.56 903.99 654.21 897.44 656.62 M 1111.45 656.56 C 1112.43 657.61 1113.44 658.67 1114.45 659.73 C 1111.65 667.81 1108.90 675.90 1106.17 684.00 C 1104.65 689.00 1102.74 694.30 1098.33 697.49 C 1101.71 697.33 1105.10 697.34 1108.50 697.46 C 1106.94 693.40 1108.21 689.13 1109.68 685.26 C 1115.06 685.20 1120.44 685.18 1125.83 685.29 C 1127.17 689.16 1128.56 693.19 1127.82 697.36 C 1132.12 697.39 1136.42 697.31 1140.73 697.47 C 1138.49 695.07 1136.79 692.22 1135.75 689.11 C 1131.97 678.28 1128.36 667.39 1124.58 656.56 C 1120.20 656.56 1115.82 656.54 1111.45 656.56 M 1232.41 656.51 C 1216.66 661.98 1214.87 686.60 1228.39 695.50 C 1235.14 700.14 1245.16 698.70 1250.46 692.50 C 1257.60 684.12 1257.75 670.71 1250.94 662.09 C 1246.68 656.69 1238.95 654.25 1232.41 656.51 M 1322.37 656.62 C 1305.86 662.64 1305.25 689.81 1321.21 696.89 C 1327.94 699.86 1336.53 697.80 1341.13 692.04 C 1348.07 683.40 1347.91 669.80 1340.64 661.41 C 1336.22 656.40 1328.68 654.29 1322.37 656.62 M 1433.48 656.52 C 1434.15 658.91 1434.87 661.47 1434.01 663.93 C 1431.17 673.23 1428.54 682.61 1425.38 691.81 C 1422.61 682.85 1419.89 673.89 1417.11 664.94 C 1416.20 662.21 1416.10 659.30 1416.62 656.49 C 1412.66 656.59 1408.70 656.59 1404.76 656.50 C 1407.54 660.07 1409.34 664.28 1410.53 668.63 C 1412.27 675.13 1414.35 681.52 1416.44 687.92 C 1417.47 690.99 1417.65 694.25 1417.22 697.46 C 1421.38 697.33 1425.55 697.35 1429.73 697.43 C 1428.34 691.23 1432.06 685.47 1433.34 679.55 C 1436.41 671.75 1436.62 662.05 1443.63 656.44 C 1440.24 656.60 1436.86 656.59 1433.48 656.52 M 1540.00 656.27 C 1541.80 659.56 1542.65 663.27 1542.69 667.02 C 1542.81 673.79 1542.75 680.58 1542.70 687.36 C 1536.95 677.18 1531.52 666.81 1525.89 656.56 C 1521.40 656.55 1516.92 656.61 1512.45 656.49 C 1516.89 663.48 1516.53 672.05 1516.49 680.00 C 1516.47 686.01 1515.70 692.25 1512.46 697.46 C 1516.01 697.34 1519.57 697.33 1523.14 697.46 C 1521.47 694.43 1520.62 691.05 1520.52 687.62 C 1520.28 680.25 1520.40 672.89 1520.47 665.52 C 1527.78 674.77 1533.63 685.66 1535.62 697.38 C 1540.22 697.38 1544.84 697.31 1549.45 697.46 C 1546.14 691.88 1546.64 685.22 1546.66 679.00 C 1546.69 671.30 1546.45 663.01 1550.80 656.28 C 1547.19 656.38 1543.59 656.39 1540.00 656.27 M 1636.39 659.29 C 1632.95 661.99 1631.24 667.34 1633.76 671.20 C 1637.04 676.09 1642.67 678.45 1647.40 681.64 C 1649.80 683.31 1653.27 684.62 1653.69 687.93 C 1653.53 692.16 1648.75 694.66 1644.93 693.83 C 1639.47 693.00 1636.23 688.00 1633.19 683.92 C 1633.24 688.22 1633.26 692.52 1633.20 696.83 C 1638.84 695.15 1644.34 699.21 1650.09 697.83 C 1657.89 697.01 1664.45 687.60 1659.68 680.46 C 1654.76 674.39 1646.17 672.69 1641.15 666.76 C 1638.72 663.40 1642.66 659.80 1645.98 659.67 C 1651.71 659.21 1655.95 663.88 1659.75 667.50 C 1659.70 663.92 1659.70 660.35 1659.72 656.79 C 1658.12 657.15 1656.51 657.50 1654.94 657.86 C 1649.18 654.60 1641.50 655.01 1636.39 659.29 M 1737.93 656.29 C 1745.90 663.03 1749.31 673.23 1754.14 682.15 C 1755.08 687.15 1753.78 692.39 1753.11 697.40 C 1756.52 697.37 1759.96 697.37 1763.40 697.38 C 1762.39 691.45 1761.15 685.20 1762.43 679.27 C 1766.75 671.30 1770.01 662.26 1777.17 656.29 C 1774.16 656.37 1771.16 656.35 1768.17 656.30 C 1767.98 658.49 1767.90 660.77 1766.84 662.76 C 1764.58 667.30 1762.41 671.89 1759.71 676.19 C 1756.86 669.63 1751.55 663.75 1751.50 656.29 C 1746.97 656.37 1742.44 656.38 1737.93 656.29 M 786.27 656.55 C 787.20 661.32 787.68 666.16 787.75 671.02 C 787.80 679.82 788.06 688.71 786.27 697.38 C 789.72 697.37 793.18 697.37 796.65 697.38 C 794.54 683.91 794.50 670.02 796.65 656.56 C 793.19 656.56 789.73 656.56 786.27 656.55 M 837.69 656.56 C 838.64 661.31 839.11 666.15 839.18 671.00 C 839.22 679.77 839.53 688.64 837.69 697.28 C 846.81 697.47 855.93 697.39 865.05 697.31 C 865.03 693.44 864.99 689.56 865.04 685.69 C 860.50 690.70 853.73 692.92 847.13 693.19 C 846.52 687.76 846.30 682.30 846.36 676.85 C 851.20 677.34 856.22 678.49 859.93 681.86 C 859.76 677.75 859.77 673.62 859.92 669.51 C 856.07 672.58 851.20 673.80 846.40 674.28 C 846.34 669.65 846.36 665.01 846.38 660.38 C 852.89 660.57 859.87 661.84 864.67 666.62 C 864.55 663.28 864.59 659.93 864.61 656.60 C 855.64 656.53 846.66 656.57 837.69 656.56 M 926.69 656.55 C 927.59 661.34 928.09 666.20 928.15 671.07 C 928.21 679.85 928.45 688.72 926.68 697.38 C 930.13 697.37 933.59 697.37 937.06 697.38 C 935.76 690.61 935.50 683.71 935.57 676.84 C 940.35 677.33 945.33 678.51 948.90 681.95 C 948.73 677.77 948.73 673.58 948.90 669.41 C 945.25 672.70 940.31 673.74 935.58 674.28 C 935.54 669.64 935.55 665.00 935.58 660.36 C 941.99 660.62 948.76 661.94 953.62 666.47 C 953.54 663.16 953.56 659.86 953.57 656.56 C 944.61 656.55 935.65 656.57 926.69 656.55 M 972.88 656.56 C 972.87 659.85 972.88 663.14 972.81 666.44 C 976.15 663.37 980.39 661.50 984.86 660.78 C 985.81 672.96 986.28 685.31 984.10 697.39 C 987.54 697.37 990.99 697.37 994.44 697.38 C 992.32 685.29 992.46 672.91 993.73 660.74 C 998.16 661.48 1002.38 663.34 1005.70 666.40 C 1005.63 663.11 1005.64 659.83 1005.64 656.55 C 994.72 656.57 983.80 656.55 972.88 656.56 M 1011.09 656.55 C 1012.92 665.25 1012.61 674.18 1012.57 683.01 C 1012.51 687.83 1011.99 692.64 1011.09 697.38 C 1014.53 697.37 1017.98 697.37 1021.43 697.39 C 1020.19 690.74 1019.93 683.96 1019.96 677.22 C 1025.30 677.16 1030.65 677.20 1036.00 677.18 C 1036.11 683.94 1035.80 690.72 1034.57 697.39 C 1038.01 697.37 1041.46 697.37 1044.91 697.38 C 1043.11 688.70 1043.37 679.79 1043.44 670.98 C 1043.48 666.13 1043.97 661.30 1044.91 656.55 C 1041.45 656.56 1038.01 656.56 1034.57 656.56 C 1035.58 662.07 1036.06 667.67 1036.04 673.28 C 1030.66 673.26 1025.29 673.31 1019.92 673.24 C 1020.00 667.65 1020.32 662.04 1021.43 656.55 C 1017.98 656.56 1014.53 656.56 1011.09 656.55 M 1051.24 656.55 C 1052.10 660.96 1052.59 665.44 1052.69 669.94 C 1052.76 679.05 1053.12 688.28 1051.23 697.26 C 1060.34 697.50 1069.46 697.35 1078.57 697.35 C 1078.57 693.47 1078.53 689.60 1078.58 685.74 C 1074.00 690.68 1067.28 692.92 1060.68 693.20 C 1060.05 687.77 1059.84 682.31 1059.90 676.85 C 1064.74 677.33 1069.72 678.51 1073.48 681.82 C 1073.29 677.72 1073.30 673.61 1073.46 669.51 C 1069.61 672.58 1064.73 673.80 1059.92 674.28 C 1059.89 669.64 1059.89 665.01 1059.91 660.38 C 1066.43 660.56 1073.40 661.85 1078.22 666.62 C 1078.10 663.28 1078.11 659.94 1078.15 656.61 C 1069.18 656.51 1060.21 656.58 1051.24 656.55 M 1142.81 656.51 C 1147.00 667.13 1143.20 678.84 1145.30 689.78 C 1147.76 696.80 1156.40 699.25 1163.12 697.95 C 1168.40 697.25 1174.00 693.59 1174.58 687.91 C 1174.93 679.96 1174.52 671.99 1174.74 664.04 C 1174.80 661.41 1175.75 658.94 1176.67 656.53 C 1172.96 656.58 1169.25 656.58 1165.56 656.49 C 1168.29 663.01 1167.07 670.18 1167.29 677.03 C 1167.18 681.46 1167.94 686.12 1166.31 690.36 C 1163.47 695.81 1153.70 694.93 1152.53 688.63 C 1151.64 681.46 1152.38 674.19 1152.11 666.99 C 1151.87 663.40 1152.65 659.89 1153.82 656.52 C 1150.14 656.57 1146.47 656.59 1142.81 656.51 M 1182.23 666.40 C 1185.60 663.39 1189.81 661.52 1194.25 660.75 C 1195.25 672.93 1195.69 685.30 1193.51 697.39 C 1196.95 697.37 1200.39 697.37 1203.85 697.39 C 1201.73 685.30 1201.89 672.94 1203.13 660.77 C 1207.59 661.43 1211.80 663.36 1215.13 666.41 C 1215.04 663.13 1215.05 659.85 1215.07 656.57 C 1204.14 656.55 1193.22 656.57 1182.30 656.57 C 1182.29 659.84 1182.29 663.12 1182.23 666.40 M 1261.59 656.50 C 1264.67 661.79 1264.37 668.06 1264.33 673.97 C 1264.38 681.92 1264.64 690.47 1260.21 697.46 C 1263.74 697.34 1267.29 697.34 1270.84 697.45 C 1269.02 693.92 1268.27 689.98 1268.27 686.04 C 1268.26 680.26 1268.02 674.48 1268.50 668.72 C 1272.78 678.13 1276.81 687.65 1280.80 697.20 C 1286.13 687.05 1289.67 676.03 1294.73 665.72 C 1295.42 676.27 1295.50 686.92 1293.67 697.36 C 1297.11 697.37 1300.57 697.37 1304.03 697.38 C 1303.10 692.65 1302.60 687.85 1302.54 683.04 C 1302.44 674.19 1302.28 665.26 1303.98 656.53 C 1300.25 656.56 1296.54 656.59 1292.83 656.52 C 1292.98 657.09 1293.28 658.23 1293.43 658.80 C 1290.22 666.98 1286.53 674.97 1283.11 683.07 C 1279.30 674.23 1275.56 665.37 1271.72 656.56 C 1268.34 656.56 1264.96 656.58 1261.59 656.50 M 1350.40 666.46 C 1353.72 663.36 1357.98 661.53 1362.43 660.74 C 1363.42 672.93 1363.87 685.29 1361.69 697.38 C 1365.13 697.37 1368.58 697.37 1372.04 697.38 C 1369.91 685.30 1370.08 672.93 1371.31 660.76 C 1375.72 661.43 1379.83 663.36 1383.26 666.22 C 1383.25 663.00 1383.24 659.78 1383.25 656.56 C 1372.32 656.55 1361.41 656.57 1350.49 656.56 C 1350.47 659.86 1350.48 663.16 1350.40 666.46 M 1388.49 656.55 C 1390.66 670.01 1390.64 683.93 1388.49 697.39 C 1391.94 697.38 1395.40 697.38 1398.86 697.38 C 1396.71 683.88 1396.71 670.05 1398.87 656.56 C 1395.40 656.56 1391.94 656.56 1388.49 656.55 M 1449.46 656.56 C 1450.39 661.31 1450.86 666.15 1450.92 671.00 C 1450.99 679.80 1451.25 688.70 1449.45 697.37 C 1458.50 697.48 1467.56 697.17 1476.61 697.55 C 1476.92 693.58 1476.71 689.60 1476.82 685.63 C 1472.29 690.68 1465.50 692.95 1458.87 693.17 C 1458.28 687.75 1458.05 682.30 1458.12 676.85 C 1462.96 677.36 1468.01 678.46 1471.67 681.92 C 1471.52 677.77 1471.53 673.61 1471.64 669.46 C 1467.85 672.62 1462.94 673.78 1458.15 674.28 C 1458.10 669.65 1458.11 665.02 1458.13 660.39 C 1464.64 660.55 1471.61 661.85 1476.43 666.60 C 1476.32 663.25 1476.33 659.91 1476.35 656.56 C 1467.38 656.55 1458.42 656.57 1449.46 656.56 M 1496.33 656.56 C 1497.26 661.31 1497.74 666.15 1497.80 671.01 C 1497.86 679.81 1498.11 688.71 1496.33 697.38 C 1499.78 697.37 1503.24 697.37 1506.70 697.38 C 1504.59 683.91 1504.56 670.02 1506.71 656.56 C 1503.24 656.56 1499.78 656.56 1496.33 656.56 M 1556.47 656.62 C 1557.57 661.99 1557.93 667.48 1557.94 672.96 C 1557.93 681.10 1558.04 689.33 1556.37 697.34 C 1563.87 696.91 1572.05 698.91 1578.97 695.07 C 1591.18 687.84 1591.90 667.62 1580.10 659.65 C 1573.16 654.84 1564.33 657.00 1556.47 656.62 M 1593.56 656.51 C 1595.24 660.44 1595.69 664.74 1595.54 668.98 C 1595.33 674.34 1595.55 679.71 1595.43 685.08 C 1595.37 688.14 1596.04 691.45 1598.34 693.66 C 1604.61 699.78 1615.56 699.79 1622.13 694.12 C 1624.76 691.91 1625.52 688.31 1625.49 685.03 C 1625.38 679.35 1625.55 673.68 1625.37 668.01 C 1625.24 664.08 1625.83 660.14 1627.36 656.51 C 1623.66 656.59 1619.97 656.59 1616.29 656.50 C 1618.91 662.67 1617.89 669.47 1618.01 675.98 C 1617.91 680.49 1618.58 685.13 1617.38 689.55 C 1615.50 694.91 1606.99 695.50 1604.12 690.74 C 1602.43 687.79 1602.93 684.24 1602.85 681.00 C 1603.40 672.85 1601.44 664.26 1604.69 656.51 C 1600.97 656.58 1597.26 656.59 1593.56 656.51 M 1665.80 656.56 C 1665.78 659.85 1665.78 663.13 1665.74 666.42 C 1669.08 663.37 1673.31 661.51 1677.77 660.77 C 1678.73 672.95 1679.20 685.30 1677.01 697.39 C 1680.45 697.37 1683.89 697.37 1687.35 697.38 C 1685.27 685.28 1685.28 672.88 1686.72 660.71 C 1691.13 661.52 1695.36 663.35 1698.65 666.47 C 1698.53 663.16 1698.54 659.86 1698.56 656.56 C 1687.64 656.56 1676.72 656.56 1665.80 656.56 M 1704.00 656.59 C 1706.18 670.03 1706.15 683.93 1704.02 697.38 C 1707.48 697.37 1710.95 697.37 1714.43 697.40 C 1713.19 691.22 1712.77 684.91 1712.93 678.62 C 1721.45 680.06 1724.96 689.78 1724.16 697.43 C 1728.40 697.35 1732.65 697.30 1736.90 697.50 C 1731.07 692.14 1732.03 682.92 1726.09 677.66 C 1727.26 677.05 1728.51 676.51 1729.64 675.77 C 1735.10 671.96 1734.90 662.17 1728.79 659.10 C 1721.06 655.40 1712.26 656.88 1704.00 656.59 Z" />
<path fill="#ffffff" opacity="1.00" d=" M 781.28 157.65 C 800.55 155.94 821.03 158.80 837.48 169.57 C 850.44 178.08 858.71 192.65 860.41 207.96 C 862.03 223.61 861.12 240.33 853.21 254.30 C 845.93 267.28 832.78 275.99 818.88 280.58 C 806.81 284.69 793.90 285.22 781.26 284.99 C 781.28 242.54 781.24 200.09 781.28 157.65 Z" />
<path fill="#ffffff" opacity="1.00" d=" M 1127.73 195.42 C 1135.83 212.46 1141.27 230.58 1147.70 248.28 C 1156.88 273.94 1164.75 300.05 1173.70 325.79 C 1143.50 325.81 1113.29 325.81 1083.09 325.80 C 1097.97 282.34 1112.76 238.85 1127.73 195.42 Z" />
<path fill="#ffffff" opacity="1.00" d=" M 1155.38 501.56 C 1159.82 500.31 1164.61 501.96 1168.01 504.90 C 1172.88 509.04 1175.92 514.89 1178.09 520.81 C 1181.80 531.12 1182.99 542.15 1183.17 553.05 C 1183.29 565.45 1182.08 578.04 1177.93 589.80 C 1175.49 596.39 1172.00 603.06 1166.03 607.08 C 1162.40 609.58 1157.50 610.23 1153.45 608.38 C 1148.37 606.12 1144.78 601.50 1142.20 596.73 C 1137.86 588.42 1135.82 579.12 1134.71 569.88 C 1133.43 557.99 1133.60 545.90 1135.53 534.08 C 1136.90 526.42 1139.07 518.77 1143.10 512.06 C 1145.91 507.38 1150.01 503.13 1155.38 501.56 Z" />
<path fill="#ffffff" opacity="1.00" d=" M 1505.21 503.82 C 1509.45 503.89 1513.80 503.28 1517.96 504.44 C 1523.72 506.37 1527.70 511.45 1530.48 516.62 C 1535.50 526.27 1537.37 537.21 1538.01 547.97 C 1538.62 560.42 1537.88 573.12 1534.00 585.04 C 1531.57 592.37 1527.92 599.89 1521.29 604.28 C 1516.57 607.54 1510.59 606.54 1505.21 606.61 C 1505.21 572.34 1505.21 538.08 1505.21 503.82 Z" />
<path fill="#ffffff" opacity="1.00" d=" M 744.80 568.65 C 750.73 551.14 756.69 533.63 762.77 516.17 C 770.12 533.21 775.21 551.13 781.28 568.66 C 769.12 568.68 756.96 568.68 744.80 568.65 Z" />
<path fill="#ffffff" opacity="1.00" d=" M 1702.81 516.11 C 1710.11 533.20 1715.30 551.10 1721.32 568.67 C 1709.14 568.67 1696.97 568.69 1684.80 568.64 C 1690.81 551.13 1696.76 533.60 1702.81 516.11 Z" />
<path fill="#ffffff" opacity="1.00" d=" M 760.24 660.13 C 763.37 658.64 767.12 660.51 768.77 663.34 C 772.46 669.18 772.68 676.51 771.58 683.15 C 770.85 687.11 769.28 691.39 765.63 693.55 C 762.68 695.33 758.72 693.91 756.89 691.19 C 752.79 685.42 752.55 677.88 753.51 671.12 C 754.25 666.84 755.98 662.02 760.24 660.13 Z" />
<path fill="#ffffff" opacity="1.00" d=" M 899.48 660.74 C 902.83 658.24 907.50 660.22 909.38 663.58 C 913.10 670.00 913.21 677.92 911.58 684.99 C 910.65 688.67 908.71 692.67 904.90 694.04 C 901.38 695.32 897.86 692.67 896.26 689.68 C 893.45 684.31 892.98 677.98 893.78 672.06 C 894.42 667.88 895.73 663.19 899.48 660.74 Z" />
<path fill="#ffffff" opacity="1.00" d=" M 1235.21 660.15 C 1238.32 658.62 1242.03 660.45 1243.75 663.22 C 1246.95 668.14 1247.49 674.27 1247.05 679.99 C 1246.59 684.60 1245.46 689.64 1241.80 692.81 C 1239.25 695.03 1235.03 694.76 1232.83 692.20 C 1228.34 687.37 1227.86 680.21 1228.18 673.95 C 1228.71 668.82 1230.08 662.57 1235.21 660.15 Z" />
<path fill="#ffffff" opacity="1.00" d=" M 1325.21 660.28 C 1328.26 658.60 1332.06 660.24 1333.87 662.99 C 1337.21 667.91 1337.76 674.16 1337.34 679.95 C 1336.88 684.45 1335.81 689.32 1332.38 692.54 C 1329.83 695.07 1325.31 694.85 1323.02 692.10 C 1318.63 687.30 1318.15 680.28 1318.44 674.09 C 1318.98 669.02 1320.24 662.84 1325.21 660.28 Z" />
<path fill="#ffffff" opacity="1.00" d=" M 1712.90 659.51 C 1716.10 659.71 1719.65 659.66 1722.37 661.67 C 1726.20 664.37 1726.31 670.83 1722.58 673.67 C 1719.86 675.88 1716.21 676.01 1712.90 676.22 C 1712.88 670.65 1712.88 665.08 1712.90 659.51 Z" />
<path fill="#ffffff" opacity="1.00" d=" M 1565.36 693.25 C 1565.31 682.40 1565.29 671.54 1565.36 660.69 C 1568.48 660.80 1572.11 660.03 1574.80 662.10 C 1578.93 665.40 1580.09 671.01 1580.29 676.02 C 1580.38 681.43 1579.45 687.46 1575.36 691.38 C 1572.71 693.96 1568.68 693.14 1565.36 693.25 Z" />
<path fill="#ffffff" opacity="1.00" d=" M 1117.43 662.73 C 1120.79 668.42 1121.88 675.19 1124.36 681.31 C 1119.95 681.30 1115.54 681.30 1111.13 681.30 C 1113.22 675.11 1115.34 668.92 1117.43 662.73 Z" />
</g>
<g id="#013f7cff">
<path fill="#013f7c" opacity="1.00" d=" M 1379.74 134.75 C 1394.28 129.77 1409.62 126.21 1425.09 127.07 C 1443.22 127.99 1460.99 134.14 1476.01 144.32 C 1488.88 141.09 1501.75 137.80 1514.76 135.17 C 1514.73 161.76 1514.82 188.34 1514.71 214.92 C 1509.92 210.82 1506.08 205.78 1501.59 201.39 C 1489.09 188.72 1475.59 176.84 1460.19 167.80 C 1450.23 161.68 1438.88 156.84 1426.99 157.15 C 1413.72 157.61 1401.41 165.16 1393.70 175.77 C 1381.78 192.05 1375.43 211.65 1371.24 231.19 C 1363.37 269.85 1363.18 310.01 1370.11 348.83 C 1373.48 366.84 1378.77 384.79 1388.34 400.55 C 1393.37 408.62 1399.50 416.30 1407.62 421.44 C 1416.19 426.90 1427.09 428.33 1436.86 425.62 C 1449.22 422.35 1459.59 414.35 1469.00 406.00 C 1480.80 395.35 1490.99 383.03 1500.07 370.01 C 1505.12 362.68 1509.76 355.07 1514.70 347.66 C 1514.83 378.62 1514.73 409.59 1514.75 440.56 C 1498.08 448.25 1480.10 452.83 1461.92 455.07 C 1439.05 458.01 1415.54 459.06 1392.92 453.85 C 1361.87 446.61 1334.31 426.93 1316.13 400.90 C 1296.48 372.91 1286.84 338.83 1284.67 304.96 C 1282.74 268.26 1289.09 230.39 1307.09 198.02 C 1322.96 169.42 1348.57 145.55 1379.74 134.75 Z" />
<path fill="#013f7c" opacity="1.00" d=" M 701.20 133.11 C 748.64 133.05 796.31 130.77 843.50 136.78 C 863.10 139.16 882.45 145.21 899.21 155.76 C 910.49 162.81 919.30 173.55 924.16 185.92 C 929.00 197.60 930.47 210.39 930.16 222.94 C 930.20 241.49 922.89 259.78 910.55 273.55 C 899.56 285.82 884.48 293.63 868.88 298.34 C 872.23 300.58 875.93 302.28 879.11 304.81 C 890.68 313.47 898.38 326.44 902.73 340.05 C 908.56 358.39 913.78 376.96 921.23 394.73 C 927.61 409.89 934.10 425.41 944.96 438.01 C 949.03 443.07 953.95 447.32 958.63 451.81 C 922.03 452.02 885.43 451.86 848.83 451.90 C 851.60 446.99 853.95 441.67 854.31 435.97 C 855.54 420.30 851.27 404.89 846.71 390.06 C 840.68 372.10 835.64 353.52 825.84 337.14 C 816.30 321.60 800.25 308.32 781.24 308.14 C 781.70 333.45 782.33 358.77 783.62 384.05 C 784.87 406.92 788.29 429.66 793.90 451.86 C 762.99 451.91 732.07 451.97 701.16 451.83 C 705.94 434.17 708.37 415.97 710.20 397.80 C 712.83 369.96 713.60 341.98 713.75 314.04 C 713.81 268.01 714.27 221.83 709.07 176.03 C 707.37 161.57 704.89 147.19 701.20 133.11 M 781.28 157.65 C 781.24 200.09 781.28 242.54 781.26 284.99 C 793.90 285.22 806.81 284.69 818.88 280.58 C 832.78 275.99 845.93 267.28 853.21 254.30 C 861.12 240.33 862.03 223.61 860.41 207.96 C 858.71 192.65 850.44 178.08 837.48 169.57 C 821.03 158.80 800.55 155.94 781.28 157.65 Z" />
<path fill="#013f7c" opacity="1.00" d=" M 1084.08 133.16 C 1118.82 132.98 1153.57 133.13 1188.32 133.07 C 1194.28 150.93 1200.61 168.67 1206.66 186.50 C 1219.82 226.10 1233.69 265.46 1246.84 305.06 C 1254.38 326.91 1261.81 348.81 1269.46 370.63 C 1276.52 389.63 1282.51 409.31 1293.45 426.55 C 1299.46 436.41 1307.77 444.56 1316.66 451.83 C 1285.77 452.03 1254.88 451.83 1223.99 451.91 C 1214.93 451.96 1205.88 451.96 1196.84 451.75 C 1202.65 443.02 1203.41 432.08 1202.44 421.91 C 1200.44 399.39 1191.23 378.50 1184.68 357.10 C 1147.34 356.46 1109.97 357.14 1072.63 356.75 C 1069.21 365.47 1066.13 374.33 1063.15 383.22 C 1057.98 399.11 1054.50 416.15 1057.49 432.83 C 1058.65 439.75 1061.99 445.98 1065.65 451.87 C 1037.29 451.89 1008.92 452.01 980.56 451.81 C 985.05 448.56 989.87 445.73 994.02 442.04 C 1006.53 430.93 1016.76 417.32 1024.14 402.32 C 1028.45 393.98 1030.81 384.85 1033.96 376.06 C 1058.50 303.67 1083.06 231.28 1107.87 158.98 C 1101.47 149.08 1093.32 140.44 1084.08 133.16 M 1127.73 195.42 C 1112.76 238.85 1097.97 282.34 1083.09 325.80 C 1113.29 325.81 1143.50 325.81 1173.70 325.79 C 1164.75 300.05 1156.88 273.94 1147.70 248.28 C 1141.27 230.58 1135.83 212.46 1127.73 195.42 Z" />
<path fill="#013f7c" opacity="1.00" d=" M 1560.54 133.10 C 1630.65 133.08 1700.75 133.03 1770.86 133.13 C 1770.71 160.13 1771.02 187.13 1770.70 214.13 C 1761.98 203.16 1751.35 193.63 1739.00 186.91 C 1709.22 170.13 1674.41 164.79 1640.63 164.56 C 1640.62 200.08 1640.62 235.60 1640.63 271.12 C 1661.37 269.72 1682.21 265.80 1701.24 257.19 C 1714.20 251.28 1725.29 241.92 1734.30 230.97 C 1734.42 265.15 1734.41 299.32 1734.30 333.50 C 1729.84 328.61 1725.71 323.38 1720.52 319.24 C 1706.85 307.48 1689.46 301.20 1672.07 297.33 C 1661.74 295.01 1651.20 293.66 1640.64 292.98 C 1640.85 334.64 1641.12 376.46 1646.69 417.82 C 1664.47 417.94 1682.18 415.04 1699.25 410.15 C 1716.67 405.01 1733.65 397.40 1747.77 385.79 C 1758.28 377.39 1766.89 366.91 1774.59 355.95 C 1774.86 387.94 1774.78 419.94 1774.63 451.93 C 1703.25 451.84 1631.87 452.01 1560.49 451.84 C 1565.84 432.61 1568.29 412.74 1570.13 392.91 C 1572.42 367.68 1572.99 342.33 1573.13 317.00 C 1573.02 270.81 1574.09 224.46 1568.77 178.49 C 1567.06 163.20 1564.56 147.96 1560.54 133.10 Z" />
<path fill="#013f7c" opacity="1.00" d=" M 361.97 468.54 C 371.13 465.85 379.53 461.14 388.33 457.56 C 390.11 475.27 396.13 492.31 403.56 508.39 C 417.05 536.69 437.99 561.28 463.44 579.53 C 495.53 602.30 534.93 614.65 574.30 613.87 C 574.31 641.78 574.30 669.70 574.32 697.61 C 556.80 698.61 539.31 696.61 522.08 693.54 C 456.40 682.07 395.99 644.40 355.75 591.37 C 330.50 558.41 313.59 519.43 305.49 478.78 C 307.64 478.46 309.80 478.18 311.98 478.23 C 325.70 477.96 339.26 475.24 352.47 471.65 C 355.74 470.91 358.59 468.92 361.97 468.54 Z" />
</g>
<g id="#ba0000ff">
<path fill="#ba0000" opacity="1.00" d=" M 191.00 183.02 C 216.40 156.41 251.30 139.06 287.90 135.15 C 297.87 134.31 307.92 134.24 317.92 134.70 C 350.42 137.01 381.96 149.96 406.96 170.82 C 426.71 187.10 442.38 208.28 452.22 231.91 C 468.42 270.31 468.70 315.15 452.78 353.69 C 439.36 387.02 414.08 415.28 382.76 432.81 C 371.88 438.78 360.47 443.72 348.63 447.33 C 346.26 447.42 343.95 447.95 341.70 448.69 C 319.20 453.97 295.51 454.22 272.87 449.56 C 266.37 447.89 259.83 446.37 253.42 444.39 C 237.68 438.23 222.41 430.50 209.02 420.08 C 173.49 393.16 150.12 350.62 147.15 306.08 C 146.68 290.98 146.47 275.67 149.83 260.86 C 155.90 231.74 170.29 204.38 191.00 183.02 Z" />
<path fill="#ba0000" opacity="1.00" d=" M 703.60 656.46 C 707.65 656.61 711.71 656.60 715.77 656.49 C 715.31 658.95 715.04 661.52 715.90 663.95 C 718.72 673.33 721.60 682.70 724.53 692.05 C 727.37 682.68 730.30 673.34 733.07 663.94 C 733.90 661.46 733.25 658.89 732.45 656.51 C 735.82 656.58 739.18 656.58 742.56 656.51 C 740.32 658.68 738.05 661.04 737.17 664.11 C 734.36 673.06 731.65 682.03 728.90 691.00 C 728.17 693.10 728.34 695.33 728.78 697.48 C 724.58 697.31 720.38 697.33 716.19 697.47 C 716.84 694.27 716.57 691.00 715.46 687.95 C 712.94 679.96 710.57 671.93 708.03 663.96 C 707.16 661.13 705.49 658.68 703.60 656.46 Z" />
<path fill="#ba0000" opacity="1.00" d=" M 756.62 656.77 C 763.55 653.98 771.99 656.69 776.36 662.65 C 782.65 671.31 782.46 684.31 775.42 692.49 C 770.16 698.69 760.20 700.08 753.44 695.59 C 740.16 686.85 741.44 662.81 756.62 656.77 M 760.24 660.13 C 755.98 662.02 754.25 666.84 753.51 671.12 C 752.55 677.88 752.79 685.42 756.89 691.19 C 758.72 693.91 762.68 695.33 765.63 693.55 C 769.28 691.39 770.85 687.11 771.58 683.15 C 772.68 676.51 772.46 669.18 768.77 663.34 C 767.12 660.51 763.37 658.64 760.24 660.13 Z" />
<path fill="#ba0000" opacity="1.00" d=" M 808.45 660.46 C 813.13 655.72 821.00 654.16 826.81 657.77 C 828.40 657.42 830.00 657.08 831.61 656.73 C 831.60 660.08 831.60 663.43 831.64 666.79 C 828.01 663.56 824.20 659.53 819.02 659.37 C 814.82 659.83 812.75 664.15 811.82 667.78 C 810.15 675.23 810.00 683.52 813.72 690.41 C 815.04 692.92 818.11 694.90 820.99 693.87 C 825.68 692.20 828.65 687.93 831.61 684.19 C 831.62 688.10 831.55 692.01 831.66 695.92 C 826.55 698.00 820.80 698.67 815.41 697.43 C 809.18 695.73 804.55 690.17 802.98 684.04 C 800.81 675.97 802.26 666.43 808.45 660.46 Z" />
<path fill="#ba0000" opacity="1.00" d=" M 897.44 656.62 C 903.99 654.21 911.83 656.56 916.19 661.94 C 923.16 670.61 923.01 684.27 915.68 692.67 C 910.42 698.58 900.93 700.05 894.20 695.81 C 880.38 687.25 881.77 662.37 897.44 656.62 M 899.48 660.74 C 895.73 663.19 894.42 667.88 893.78 672.06 C 892.98 677.98 893.45 684.31 896.26 689.68 C 897.86 692.67 901.38 695.32 904.90 694.04 C 908.71 692.67 910.65 688.67 911.58 684.99 C 913.21 677.92 913.10 670.00 909.38 663.58 C 907.50 660.22 902.83 658.24 899.48 660.74 Z" />
<path fill="#ba0000" opacity="1.00" d=" M 1111.45 656.56 C 1115.82 656.54 1120.20 656.56 1124.58 656.56 C 1128.36 667.39 1131.97 678.28 1135.75 689.11 C 1136.79 692.22 1138.49 695.07 1140.73 697.47 C 1136.42 697.31 1132.12 697.39 1127.82 697.36 C 1128.56 693.19 1127.17 689.16 1125.83 685.29 C 1120.44 685.18 1115.06 685.20 1109.68 685.26 C 1108.21 689.13 1106.94 693.40 1108.50 697.46 C 1105.10 697.34 1101.71 697.33 1098.33 697.49 C 1102.74 694.30 1104.65 689.00 1106.17 684.00 C 1108.90 675.90 1111.65 667.81 1114.45 659.73 C 1113.44 658.67 1112.43 657.61 1111.45 656.56 M 1117.43 662.73 C 1115.34 668.92 1113.22 675.11 1111.13 681.30 C 1115.54 681.30 1119.95 681.30 1124.36 681.31 C 1121.88 675.19 1120.79 668.42 1117.43 662.73 Z" />
<path fill="#ba0000" opacity="1.00" d=" M 1232.41 656.51 C 1238.95 654.25 1246.68 656.69 1250.94 662.09 C 1257.75 670.71 1257.60 684.12 1250.46 692.50 C 1245.16 698.70 1235.14 700.14 1228.39 695.50 C 1214.87 686.60 1216.66 661.98 1232.41 656.51 M 1235.21 660.15 C 1230.08 662.57 1228.71 668.82 1228.18 673.95 C 1227.86 680.21 1228.34 687.37 1232.83 692.20 C 1235.03 694.76 1239.25 695.03 1241.80 692.81 C 1245.46 689.64 1246.59 684.60 1247.05 679.99 C 1247.49 674.27 1246.95 668.14 1243.75 663.22 C 1242.03 660.45 1238.32 658.62 1235.21 660.15 Z" />
<path fill="#ba0000" opacity="1.00" d=" M 1322.37 656.62 C 1328.68 654.29 1336.22 656.40 1340.64 661.41 C 1347.91 669.80 1348.07 683.40 1341.13 692.04 C 1336.53 697.80 1327.94 699.86 1321.21 696.89 C 1305.25 689.81 1305.86 662.64 1322.37 656.62 M 1325.21 660.28 C 1320.24 662.84 1318.98 669.02 1318.44 674.09 C 1318.15 680.28 1318.63 687.30 1323.02 692.10 C 1325.31 694.85 1329.83 695.07 1332.38 692.54 C 1335.81 689.32 1336.88 684.45 1337.34 679.95 C 1337.76 674.16 1337.21 667.91 1333.87 662.99 C 1332.06 660.24 1328.26 658.60 1325.21 660.28 Z" />
<path fill="#ba0000" opacity="1.00" d=" M 1433.48 656.52 C 1436.86 656.59 1440.24 656.60 1443.63 656.44 C 1436.62 662.05 1436.41 671.75 1433.34 679.55 C 1432.06 685.47 1428.34 691.23 1429.73 697.43 C 1425.55 697.35 1421.38 697.33 1417.22 697.46 C 1417.65 694.25 1417.47 690.99 1416.44 687.92 C 1414.35 681.52 1412.27 675.13 1410.53 668.63 C 1409.34 664.28 1407.54 660.07 1404.76 656.50 C 1408.70 656.59 1412.66 656.59 1416.62 656.49 C 1416.10 659.30 1416.20 662.21 1417.11 664.94 C 1419.89 673.89 1422.61 682.85 1425.38 691.81 C 1428.54 682.61 1431.17 673.23 1434.01 663.93 C 1434.87 661.47 1434.15 658.91 1433.48 656.52 Z" />
<path fill="#ba0000" opacity="1.00" d=" M 1540.00 656.27 C 1543.59 656.39 1547.19 656.38 1550.80 656.28 C 1546.45 663.01 1546.69 671.30 1546.66 679.00 C 1546.64 685.22 1546.14 691.88 1549.45 697.46 C 1544.84 697.31 1540.22 697.38 1535.62 697.38 C 1533.63 685.66 1527.78 674.77 1520.47 665.52 C 1520.40 672.89 1520.28 680.25 1520.52 687.62 C 1520.62 691.05 1521.47 694.43 1523.14 697.46 C 1519.57 697.33 1516.01 697.34 1512.46 697.46 C 1515.70 692.25 1516.47 686.01 1516.49 680.00 C 1516.53 672.05 1516.89 663.48 1512.45 656.49 C 1516.92 656.61 1521.40 656.55 1525.89 656.56 C 1531.52 666.81 1536.95 677.18 1542.70 687.36 C 1542.75 680.58 1542.81 673.79 1542.69 667.02 C 1542.65 663.27 1541.80 659.56 1540.00 656.27 Z" />
<path fill="#ba0000" opacity="1.00" d=" M 1636.39 659.29 C 1641.50 655.01 1649.18 654.60 1654.94 657.86 C 1656.51 657.50 1658.12 657.15 1659.72 656.79 C 1659.70 660.35 1659.70 663.92 1659.75 667.50 C 1655.95 663.88 1651.71 659.21 1645.98 659.67 C 1642.66 659.80 1638.72 663.40 1641.15 666.76 C 1646.17 672.69 1654.76 674.39 1659.68 680.46 C 1664.45 687.60 1657.89 697.01 1650.09 697.83 C 1644.34 699.21 1638.84 695.15 1633.20 696.83 C 1633.26 692.52 1633.24 688.22 1633.19 683.92 C 1636.23 688.00 1639.47 693.00 1644.93 693.83 C 1648.75 694.66 1653.53 692.16 1653.69 687.93 C 1653.27 684.62 1649.80 683.31 1647.40 681.64 C 1642.67 678.45 1637.04 676.09 1633.76 671.20 C 1631.24 667.34 1632.95 661.99 1636.39 659.29 Z" />
<path fill="#ba0000" opacity="1.00" d=" M 1737.93 656.29 C 1742.44 656.38 1746.97 656.37 1751.50 656.29 C 1751.55 663.75 1756.86 669.63 1759.71 676.19 C 1762.41 671.89 1764.58 667.30 1766.84 662.76 C 1767.90 660.77 1767.98 658.49 1768.17 656.30 C 1771.16 656.35 1774.16 656.37 1777.17 656.29 C 1770.01 662.26 1766.75 671.30 1762.43 679.27 C 1761.15 685.20 1762.39 691.45 1763.40 697.38 C 1759.96 697.37 1756.52 697.37 1753.11 697.40 C 1753.78 692.39 1755.08 687.15 1754.14 682.15 C 1749.31 673.23 1745.90 663.03 1737.93 656.29 Z" />
<path fill="#ba0000" opacity="1.00" d=" M 786.27 656.55 C 789.73 656.56 793.19 656.56 796.65 656.56 C 794.50 670.02 794.54 683.91 796.65 697.38 C 793.18 697.37 789.72 697.37 786.27 697.38 C 788.06 688.71 787.80 679.82 787.75 671.02 C 787.68 666.16 787.20 661.32 786.27 656.55 Z" />
<path fill="#ba0000" opacity="1.00" d=" M 837.69 656.56 C 846.66 656.57 855.64 656.53 864.61 656.60 C 864.59 659.93 864.55 663.28 864.67 666.62 C 859.87 661.84 852.89 660.57 846.38 660.38 C 846.36 665.01 846.34 669.65 846.40 674.28 C 851.20 673.80 856.07 672.58 859.92 669.51 C 859.77 673.62 859.76 677.75 859.93 681.86 C 856.22 678.49 851.20 677.34 846.36 676.85 C 846.30 682.30 846.52 687.76 847.13 693.19 C 853.73 692.92 860.50 690.70 865.04 685.69 C 864.99 689.56 865.03 693.44 865.05 697.31 C 855.93 697.39 846.81 697.47 837.69 697.28 C 839.53 688.64 839.22 679.77 839.18 671.00 C 839.11 666.15 838.64 661.31 837.69 656.56 Z" />
<path fill="#ba0000" opacity="1.00" d=" M 926.69 656.55 C 935.65 656.57 944.61 656.55 953.57 656.56 C 953.56 659.86 953.54 663.16 953.62 666.47 C 948.76 661.94 941.99 660.62 935.58 660.36 C 935.55 665.00 935.54 669.64 935.58 674.28 C 940.31 673.74 945.25 672.70 948.90 669.41 C 948.73 673.58 948.73 677.77 948.90 681.95 C 945.33 678.51 940.35 677.33 935.57 676.84 C 935.50 683.71 935.76 690.61 937.06 697.38 C 933.59 697.37 930.13 697.37 926.68 697.38 C 928.45 688.72 928.21 679.85 928.15 671.07 C 928.09 666.20 927.59 661.34 926.69 656.55 Z" />
<path fill="#ba0000" opacity="1.00" d=" M 972.88 656.56 C 983.80 656.55 994.72 656.57 1005.64 656.55 C 1005.64 659.83 1005.63 663.11 1005.70 666.40 C 1002.38 663.34 998.16 661.48 993.73 660.74 C 992.46 672.91 992.32 685.29 994.44 697.38 C 990.99 697.37 987.54 697.37 984.10 697.39 C 986.28 685.31 985.81 672.96 984.86 660.78 C 980.39 661.50 976.15 663.37 972.81 666.44 C 972.88 663.14 972.87 659.85 972.88 656.56 Z" />
<path fill="#ba0000" opacity="1.00" d=" M 1011.09 656.55 C 1014.53 656.56 1017.98 656.56 1021.43 656.55 C 1020.32 662.04 1020.00 667.65 1019.92 673.24 C 1025.29 673.31 1030.66 673.26 1036.04 673.28 C 1036.06 667.67 1035.58 662.07 1034.57 656.56 C 1038.01 656.56 1041.45 656.56 1044.91 656.55 C 1043.97 661.30 1043.48 666.13 1043.44 670.98 C 1043.37 679.79 1043.11 688.70 1044.91 697.38 C 1041.46 697.37 1038.01 697.37 1034.57 697.39 C 1035.80 690.72 1036.11 683.94 1036.00 677.18 C 1030.65 677.20 1025.30 677.16 1019.96 677.22 C 1019.93 683.96 1020.19 690.74 1021.43 697.39 C 1017.98 697.37 1014.53 697.37 1011.09 697.38 C 1011.99 692.64 1012.51 687.83 1012.57 683.01 C 1012.61 674.18 1012.92 665.25 1011.09 656.55 Z" />
<path fill="#ba0000" opacity="1.00" d=" M 1051.24 656.55 C 1060.21 656.58 1069.18 656.51 1078.15 656.61 C 1078.11 659.94 1078.10 663.28 1078.22 666.62 C 1073.40 661.85 1066.43 660.56 1059.91 660.38 C 1059.89 665.01 1059.89 669.64 1059.92 674.28 C 1064.73 673.80 1069.61 672.58 1073.46 669.51 C 1073.30 673.61 1073.29 677.72 1073.48 681.82 C 1069.72 678.51 1064.74 677.33 1059.90 676.85 C 1059.84 682.31 1060.05 687.77 1060.68 693.20 C 1067.28 692.92 1074.00 690.68 1078.58 685.74 C 1078.53 689.60 1078.57 693.47 1078.57 697.35 C 1069.46 697.35 1060.34 697.50 1051.23 697.26 C 1053.12 688.28 1052.76 679.05 1052.69 669.94 C 1052.59 665.44 1052.10 660.96 1051.24 656.55 Z" />
<path fill="#ba0000" opacity="1.00" d=" M 1142.81 656.51 C 1146.47 656.59 1150.14 656.57 1153.82 656.52 C 1152.65 659.89 1151.87 663.40 1152.11 666.99 C 1152.38 674.19 1151.64 681.46 1152.53 688.63 C 1153.70 694.93 1163.47 695.81 1166.31 690.36 C 1167.94 686.12 1167.18 681.46 1167.29 677.03 C 1167.07 670.18 1168.29 663.01 1165.56 656.49 C 1169.25 656.58 1172.96 656.58 1176.67 656.53 C 1175.75 658.94 1174.80 661.41 1174.74 664.04 C 1174.52 671.99 1174.93 679.96 1174.58 687.91 C 1174.00 693.59 1168.40 697.25 1163.12 697.95 C 1156.40 699.25 1147.76 696.80 1145.30 689.78 C 1143.20 678.84 1147.00 667.13 1142.81 656.51 Z" />
<path fill="#ba0000" opacity="1.00" d=" M 1182.23 666.40 C 1182.29 663.12 1182.29 659.84 1182.30 656.57 C 1193.22 656.57 1204.14 656.55 1215.07 656.57 C 1215.05 659.85 1215.04 663.13 1215.13 666.41 C 1211.80 663.36 1207.59 661.43 1203.13 660.77 C 1201.89 672.94 1201.73 685.30 1203.85 697.39 C 1200.39 697.37 1196.95 697.37 1193.51 697.39 C 1195.69 685.30 1195.25 672.93 1194.25 660.75 C 1189.81 661.52 1185.60 663.39 1182.23 666.40 Z" />
<path fill="#ba0000" opacity="1.00" d=" M 1261.59 656.50 C 1264.96 656.58 1268.34 656.56 1271.72 656.56 C 1275.56 665.37 1279.30 674.23 1283.11 683.07 C 1286.53 674.97 1290.22 666.98 1293.43 658.80 C 1293.28 658.23 1292.98 657.09 1292.83 656.52 C 1296.54 656.59 1300.25 656.56 1303.98 656.53 C 1302.28 665.26 1302.44 674.19 1302.54 683.04 C 1302.60 687.85 1303.10 692.65 1304.03 697.38 C 1300.57 697.37 1297.11 697.37 1293.67 697.36 C 1295.50 686.92 1295.42 676.27 1294.73 665.72 C 1289.67 676.03 1286.13 687.05 1280.80 697.20 C 1276.81 687.65 1272.78 678.13 1268.50 668.72 C 1268.02 674.48 1268.26 680.26 1268.27 686.04 C 1268.27 689.98 1269.02 693.92 1270.84 697.45 C 1267.29 697.34 1263.74 697.34 1260.21 697.46 C 1264.64 690.47 1264.38 681.92 1264.33 673.97 C 1264.37 668.06 1264.67 661.79 1261.59 656.50 Z" />
<path fill="#ba0000" opacity="1.00" d=" M 1350.40 666.46 C 1350.48 663.16 1350.47 659.86 1350.49 656.56 C 1361.41 656.57 1372.32 656.55 1383.25 656.56 C 1383.24 659.78 1383.25 663.00 1383.26 666.22 C 1379.83 663.36 1375.72 661.43 1371.31 660.76 C 1370.08 672.93 1369.91 685.30 1372.04 697.38 C 1368.58 697.37 1365.13 697.37 1361.69 697.38 C 1363.87 685.29 1363.42 672.93 1362.43 660.74 C 1357.98 661.53 1353.72 663.36 1350.40 666.46 Z" />
<path fill="#ba0000" opacity="1.00" d=" M 1388.49 656.55 C 1391.94 656.56 1395.40 656.56 1398.87 656.56 C 1396.71 670.05 1396.71 683.88 1398.86 697.38 C 1395.40 697.38 1391.94 697.38 1388.49 697.39 C 1390.64 683.93 1390.66 670.01 1388.49 656.55 Z" />
<path fill="#ba0000" opacity="1.00" d=" M 1449.46 656.56 C 1458.42 656.57 1467.38 656.55 1476.35 656.56 C 1476.33 659.91 1476.32 663.25 1476.43 666.60 C 1471.61 661.85 1464.64 660.55 1458.13 660.39 C 1458.11 665.02 1458.10 669.65 1458.15 674.28 C 1462.94 673.78 1467.85 672.62 1471.64 669.46 C 1471.53 673.61 1471.52 677.77 1471.67 681.92 C 1468.01 678.46 1462.96 677.36 1458.12 676.85 C 1458.05 682.30 1458.28 687.75 1458.87 693.17 C 1465.50 692.95 1472.29 690.68 1476.82 685.63 C 1476.71 689.60 1476.92 693.58 1476.61 697.55 C 1467.56 697.17 1458.50 697.48 1449.45 697.37 C 1451.25 688.70 1450.99 679.80 1450.92 671.00 C 1450.86 666.15 1450.39 661.31 1449.46 656.56 Z" />
<path fill="#ba0000" opacity="1.00" d=" M 1496.33 656.56 C 1499.78 656.56 1503.24 656.56 1506.71 656.56 C 1504.56 670.02 1504.59 683.91 1506.70 697.38 C 1503.24 697.37 1499.78 697.37 1496.33 697.38 C 1498.11 688.71 1497.86 679.81 1497.80 671.01 C 1497.74 666.15 1497.26 661.31 1496.33 656.56 Z" />
<path fill="#ba0000" opacity="1.00" d=" M 1556.47 656.62 C 1564.33 657.00 1573.16 654.84 1580.10 659.65 C 1591.90 667.62 1591.18 687.84 1578.97 695.07 C 1572.05 698.91 1563.87 696.91 1556.37 697.34 C 1558.04 689.33 1557.93 681.10 1557.94 672.96 C 1557.93 667.48 1557.57 661.99 1556.47 656.62 M 1565.36 693.25 C 1568.68 693.14 1572.71 693.96 1575.36 691.38 C 1579.45 687.46 1580.38 681.43 1580.29 676.02 C 1580.09 671.01 1578.93 665.40 1574.80 662.10 C 1572.11 660.03 1568.48 660.80 1565.36 660.69 C 1565.29 671.54 1565.31 682.40 1565.36 693.25 Z" />
<path fill="#ba0000" opacity="1.00" d=" M 1593.56 656.51 C 1597.26 656.59 1600.97 656.58 1604.69 656.51 C 1601.44 664.26 1603.40 672.85 1602.85 681.00 C 1602.93 684.24 1602.43 687.79 1604.12 690.74 C 1606.99 695.50 1615.50 694.91 1617.38 689.55 C 1618.58 685.13 1617.91 680.49 1618.01 675.98 C 1617.89 669.47 1618.91 662.67 1616.29 656.50 C 1619.97 656.59 1623.66 656.59 1627.36 656.51 C 1625.83 660.14 1625.24 664.08 1625.37 668.01 C 1625.55 673.68 1625.38 679.35 1625.49 685.03 C 1625.52 688.31 1624.76 691.91 1622.13 694.12 C 1615.56 699.79 1604.61 699.78 1598.34 693.66 C 1596.04 691.45 1595.37 688.14 1595.43 685.08 C 1595.55 679.71 1595.33 674.34 1595.54 668.98 C 1595.69 664.74 1595.24 660.44 1593.56 656.51 Z" />
<path fill="#ba0000" opacity="1.00" d=" M 1665.80 656.56 C 1676.72 656.56 1687.64 656.56 1698.56 656.56 C 1698.54 659.86 1698.53 663.16 1698.65 666.47 C 1695.36 663.35 1691.13 661.52 1686.72 660.71 C 1685.28 672.88 1685.27 685.28 1687.35 697.38 C 1683.89 697.37 1680.45 697.37 1677.01 697.39 C 1679.20 685.30 1678.73 672.95 1677.77 660.77 C 1673.31 661.51 1669.08 663.37 1665.74 666.42 C 1665.78 663.13 1665.78 659.85 1665.80 656.56 Z" />
<path fill="#ba0000" opacity="1.00" d=" M 1704.00 656.59 C 1712.26 656.88 1721.06 655.40 1728.79 659.10 C 1734.90 662.17 1735.10 671.96 1729.64 675.77 C 1728.51 676.51 1727.26 677.05 1726.09 677.66 C 1732.03 682.92 1731.07 692.14 1736.90 697.50 C 1732.65 697.30 1728.40 697.35 1724.16 697.43 C 1724.96 689.78 1721.45 680.06 1712.93 678.62 C 1712.77 684.91 1713.19 691.22 1714.43 697.40 C 1710.95 697.37 1707.48 697.37 1704.02 697.38 C 1706.15 683.93 1706.18 670.03 1704.00 656.59 M 1712.90 659.51 C 1712.88 665.08 1712.88 670.65 1712.90 676.22 C 1716.21 676.01 1719.86 675.88 1722.58 673.67 C 1726.31 670.83 1726.20 664.37 1722.37 661.67 C 1719.65 659.66 1716.10 659.71 1712.90 659.51 Z" />
</g>
<g id="#303030ff">
<path fill="#303030" opacity="1.00" d=" M 485.79 296.07 C 514.45 296.05 543.10 296.13 571.75 296.02 C 571.73 353.89 552.77 411.69 517.82 457.89 C 507.54 472.06 495.25 484.60 482.51 496.55 C 470.61 507.45 457.54 517.01 443.86 525.55 C 438.36 517.12 432.52 508.87 428.23 499.72 C 419.67 482.34 414.40 463.35 412.78 444.04 C 424.13 434.73 435.18 424.91 444.28 413.33 C 471.07 380.59 486.27 338.42 485.79 296.07 Z" />
<path fill="#303030" opacity="1.00" d=" M 1147.51 489.64 C 1164.27 485.99 1182.64 491.12 1195.00 503.03 C 1207.90 515.04 1214.72 532.58 1215.57 549.99 C 1216.57 567.04 1212.89 584.83 1202.84 598.89 C 1191.93 614.13 1172.83 623.17 1154.10 621.41 C 1138.36 620.13 1123.44 611.60 1114.31 598.72 C 1105.79 586.94 1101.79 572.37 1101.39 557.95 C 1100.68 539.77 1105.95 520.87 1118.13 507.07 C 1125.81 498.43 1136.15 492.04 1147.51 489.64 M 1155.38 501.56 C 1150.01 503.13 1145.91 507.38 1143.10 512.06 C 1139.07 518.77 1136.90 526.42 1135.53 534.08 C 1133.60 545.90 1133.43 557.99 1134.71 569.88 C 1135.82 579.12 1137.86 588.42 1142.20 596.73 C 1144.78 601.50 1148.37 606.12 1153.45 608.38 C 1157.50 610.23 1162.40 609.58 1166.03 607.08 C 1172.00 603.06 1175.49 596.39 1177.93 589.80 C 1182.08 578.04 1183.29 565.45 1183.17 553.05 C 1182.99 542.15 1181.80 531.12 1178.09 520.81 C 1175.92 514.89 1172.88 509.04 1168.01 504.90 C 1164.61 501.96 1159.82 500.31 1155.38 501.56 Z" />
<path fill="#303030" opacity="1.00" d=" M 745.38 491.00 C 759.34 490.93 773.30 490.96 787.27 490.99 C 798.90 524.97 810.17 559.08 822.14 592.95 C 825.57 602.90 830.26 612.99 838.92 619.47 C 822.87 619.47 806.83 619.41 790.78 619.51 C 794.50 612.45 792.85 604.20 790.82 596.89 C 789.34 591.56 787.32 586.40 785.64 581.13 C 770.54 581.02 755.44 580.94 740.35 581.17 C 737.50 589.89 733.57 598.60 734.01 607.99 C 734.01 612.07 735.58 615.92 737.65 619.37 C 726.20 619.58 714.75 619.37 703.30 619.49 C 710.25 615.16 715.91 608.92 719.81 601.75 C 722.51 597.05 723.88 591.77 725.69 586.70 C 735.36 558.28 744.91 529.81 754.78 501.45 C 752.25 497.46 748.87 494.13 745.38 491.00 M 744.80 568.65 C 756.96 568.68 769.12 568.68 781.28 568.66 C 775.21 551.13 770.12 533.21 762.77 516.17 C 756.69 533.63 750.73 551.14 744.80 568.65 Z" />
<path fill="#303030" opacity="1.00" d=" M 856.19 490.96 C 870.17 490.96 884.15 490.97 898.13 490.96 C 891.33 502.04 891.21 515.41 891.51 527.99 C 891.50 545.32 891.48 562.65 891.53 579.99 C 891.71 587.78 892.40 596.27 897.47 602.60 C 903.96 610.69 918.37 609.86 923.76 600.94 C 928.69 593.26 928.48 583.76 928.40 574.99 C 928.41 555.35 928.35 535.70 928.44 516.05 C 928.37 507.31 926.31 498.49 921.79 490.96 C 935.82 490.97 949.86 490.96 963.89 490.97 C 958.11 500.19 956.85 511.36 957.03 522.02 C 957.04 543.33 957.06 564.65 957.04 585.96 C 957.13 594.63 952.97 602.96 946.67 608.78 C 937.39 617.49 924.39 621.07 911.93 621.57 C 898.86 621.86 885.10 618.66 874.89 610.13 C 867.71 604.23 862.99 595.31 862.89 585.94 C 862.80 563.65 862.86 541.34 862.87 519.05 C 863.08 509.32 861.00 499.47 856.19 490.96 Z" />
<path fill="#303030" opacity="1.00" d=" M 981.13 490.97 C 1015.50 491.01 1049.87 490.87 1084.24 491.04 C 1084.20 501.83 1084.19 512.62 1084.25 523.42 C 1075.51 512.63 1062.04 507.02 1048.64 504.78 C 1045.58 527.39 1046.15 550.27 1046.44 573.02 C 1046.61 588.59 1047.24 604.34 1051.26 619.46 C 1038.84 619.45 1026.42 619.46 1014.01 619.46 C 1018.68 600.01 1018.95 579.87 1018.96 559.97 C 1019.07 541.57 1019.04 523.11 1016.75 504.82 C 1003.34 506.96 989.84 512.60 981.14 523.39 C 981.11 512.58 981.12 501.78 981.13 490.97 Z" />
<path fill="#303030" opacity="1.00" d=" M 1276.73 490.97 C 1289.14 490.96 1301.56 490.97 1313.98 490.97 C 1308.75 512.21 1308.98 534.26 1309.04 555.99 C 1309.02 577.20 1308.78 598.73 1314.08 619.43 C 1301.62 619.46 1289.16 619.52 1276.70 619.39 C 1282.11 598.39 1281.50 576.53 1281.89 555.02 C 1281.53 533.61 1282.07 511.87 1276.73 490.97 Z" />
<path fill="#303030" opacity="1.00" d=" M 1331.25 490.97 C 1347.05 491.01 1362.85 490.88 1378.65 491.03 C 1394.55 520.60 1410.77 550.00 1426.81 579.49 C 1427.51 568.69 1427.69 557.86 1427.34 547.05 C 1427.19 535.04 1427.68 522.95 1425.98 511.02 C 1424.93 503.82 1422.40 496.74 1417.90 490.96 C 1429.71 490.98 1441.51 490.95 1453.32 490.98 C 1445.89 499.55 1443.16 510.95 1441.48 521.88 C 1438.96 542.13 1439.67 562.59 1439.78 582.94 C 1440.49 592.79 1440.17 603.23 1444.84 612.24 C 1446.09 614.79 1447.71 617.13 1449.34 619.47 C 1433.76 619.44 1418.18 619.49 1402.60 619.43 C 1400.23 598.91 1391.76 579.81 1382.52 561.57 C 1375.35 547.92 1367.83 534.21 1357.53 522.63 C 1357.41 533.75 1357.12 544.87 1357.21 555.99 C 1357.36 570.64 1356.54 585.39 1358.86 599.92 C 1359.72 606.98 1362.55 613.73 1366.74 619.47 C 1354.85 619.49 1342.96 619.40 1331.07 619.52 C 1335.67 614.44 1338.61 608.12 1340.41 601.57 C 1344.87 585.82 1345.30 569.30 1345.04 553.04 C 1344.63 536.36 1344.59 519.18 1338.62 503.35 C 1337.02 498.76 1334.31 494.69 1331.25 490.97 Z" />
<path fill="#303030" opacity="1.00" d=" M 1470.93 490.97 C 1485.61 490.95 1500.30 491.00 1514.98 490.93 C 1532.94 491.06 1550.32 500.79 1560.38 515.58 C 1569.38 528.79 1572.90 545.21 1571.65 561.04 C 1570.73 575.69 1565.11 590.18 1555.23 601.13 C 1547.44 609.78 1536.86 615.85 1525.47 618.26 C 1517.43 619.96 1509.17 619.36 1501.01 619.46 C 1490.98 619.44 1480.95 619.51 1470.93 619.42 C 1476.38 597.74 1475.69 575.19 1475.88 553.01 C 1475.91 532.27 1475.98 511.23 1470.93 490.97 M 1505.21 503.82 C 1505.21 538.08 1505.21 572.34 1505.21 606.61 C 1510.59 606.54 1516.57 607.54 1521.29 604.28 C 1527.92 599.89 1531.57 592.37 1534.00 585.04 C 1537.88 573.12 1538.62 560.42 1538.01 547.97 C 1537.37 537.21 1535.50 526.27 1530.48 516.62 C 1527.70 511.45 1523.72 506.37 1517.96 504.44 C 1513.80 503.28 1509.45 503.89 1505.21 503.82 Z" />
<path fill="#303030" opacity="1.00" d=" M 1589.14 490.97 C 1601.55 490.96 1613.95 490.96 1626.36 490.98 C 1621.08 512.20 1621.34 534.23 1621.32 555.95 C 1621.37 577.14 1621.17 598.64 1626.40 619.32 C 1613.95 619.56 1601.50 619.50 1589.05 619.36 C 1594.21 599.00 1594.05 577.84 1594.18 556.98 C 1594.13 534.92 1594.37 512.56 1589.14 490.97 Z" />
<path fill="#303030" opacity="1.00" d=" M 1685.20 490.96 C 1699.22 490.98 1713.24 490.93 1727.27 490.99 C 1738.50 523.71 1749.42 556.53 1760.81 589.19 C 1764.64 600.35 1769.18 612.18 1778.95 619.51 C 1762.91 619.42 1746.87 619.43 1730.83 619.51 C 1732.99 615.32 1733.48 610.47 1732.77 605.85 C 1731.69 597.29 1728.24 589.33 1725.74 581.14 C 1710.64 580.96 1695.55 581.03 1680.46 581.10 C 1677.39 590.15 1673.34 599.32 1674.14 609.11 C 1674.24 612.83 1675.85 616.24 1677.71 619.39 C 1666.27 619.58 1654.84 619.36 1643.42 619.50 C 1652.44 613.81 1659.22 604.88 1662.97 594.95 C 1673.45 563.83 1684.06 532.76 1694.66 501.68 C 1692.56 497.29 1688.82 494.06 1685.20 490.96 M 1702.81 516.11 C 1696.76 533.60 1690.81 551.13 1684.80 568.64 C 1696.97 568.69 1709.14 568.67 1721.32 568.67 C 1715.30 551.10 1710.11 533.20 1702.81 516.11 Z" />
</g>
</svg>
