<?xml version="1.0" encoding="UTF-8" ?>
<!DOCTYPE svg PUBLIC "-//W3C//DTD SVG 1.1//EN" "http://www.w3.org/Graphics/SVG/1.1/DTD/svg11.dtd">
<svg width="1957pt" height="727pt" viewBox="0 0 1957 727" version="1.1" xmlns="http://www.w3.org/2000/svg">
<g id="#013f7cff">
<path fill="#013f7c" opacity="1.00" d=" M 1490.96 39.96 C 1519.41 35.04 1549.32 42.26 1573.08 58.46 C 1587.92 54.74 1602.75 50.92 1617.76 47.93 C 1617.71 78.52 1617.79 109.12 1617.72 139.72 C 1612.51 135.47 1608.47 130.00 1603.69 125.31 C 1589.07 110.39 1573.31 96.33 1555.24 85.71 C 1546.88 80.52 1537.85 76.20 1528.16 74.27 C 1519.33 72.38 1509.95 72.92 1501.62 76.50 C 1488.94 81.02 1479.49 91.51 1472.81 102.85 C 1461.42 121.80 1455.27 143.38 1451.10 164.95 C 1443.43 207.53 1443.46 251.51 1451.12 294.09 C 1455.06 315.11 1461.28 336.08 1472.60 354.40 C 1480.81 367.33 1492.18 380.10 1507.94 383.10 C 1523.83 386.66 1539.70 379.52 1552.29 370.28 C 1569.14 357.90 1583.31 342.26 1595.74 325.53 C 1603.64 314.98 1610.40 303.62 1617.69 292.66 C 1617.83 328.31 1617.69 363.96 1617.76 399.62 C 1599.26 408.26 1579.30 413.41 1559.10 416.10 C 1534.84 419.32 1510.03 420.83 1485.79 416.67 C 1449.83 410.64 1416.95 389.98 1394.51 361.42 C 1373.47 335.05 1361.33 302.57 1355.65 269.56 C 1350.96 241.97 1351.23 213.61 1355.91 186.03 C 1361.40 153.23 1374.30 121.28 1395.37 95.35 C 1406.84 81.46 1420.40 69.19 1435.82 59.83 C 1452.67 49.65 1471.62 43.32 1490.96 39.96 Z" />
<path fill="#013f7c" opacity="1.00" d=" M 680.52 45.53 C 722.36 45.46 764.23 43.98 806.04 46.29 C 827.34 47.68 848.83 49.27 869.59 54.53 C 885.32 59.49 901.14 65.47 914.31 75.67 C 924.16 83.02 931.68 93.17 936.53 104.41 C 942.43 117.75 944.57 132.49 944.26 146.99 C 944.69 165.51 938.90 184.07 928.13 199.13 C 915.46 217.67 895.10 229.67 873.77 235.67 C 876.31 238.11 879.84 239.14 882.61 241.31 C 897.36 251.07 907.12 266.81 912.52 283.40 C 917.20 298.04 921.51 312.81 926.52 327.36 C 932.38 343.62 938.93 359.67 946.83 375.06 C 952.65 386.37 960.41 396.63 969.47 405.54 C 972.01 407.90 974.66 410.15 977.07 412.66 C 934.90 412.85 892.72 412.72 850.55 412.73 C 853.90 407.03 856.55 400.79 856.92 394.11 C 858.28 376.78 853.64 359.70 848.73 343.24 C 842.40 324.33 836.95 304.98 827.85 287.14 C 820.63 273.17 809.89 260.70 795.97 253.12 C 788.84 249.29 780.76 247.46 772.71 247.19 C 773.18 271.48 773.73 295.78 774.79 320.05 C 775.56 343.17 777.66 366.28 782.06 389.01 C 783.45 397.00 785.63 404.82 787.26 412.75 C 751.66 412.68 716.07 412.86 680.47 412.67 C 686.04 392.20 688.81 371.10 690.94 350.03 C 694.63 310.46 695.13 270.68 695.00 230.96 C 695.09 192.31 694.83 153.61 691.55 115.07 C 689.68 91.65 686.51 68.28 680.52 45.53 M 772.75 73.82 C 772.74 122.71 772.75 171.60 772.75 220.49 C 785.86 220.72 799.15 220.27 811.86 216.72 C 827.09 212.40 841.76 204.25 851.47 191.48 C 861.50 178.32 864.99 161.27 864.64 145.00 C 864.86 133.63 863.10 122.08 858.28 111.71 C 852.66 99.46 842.60 89.53 830.62 83.46 C 812.89 74.48 792.38 71.99 772.75 73.82 Z" />
<path fill="#013f7c" opacity="1.00" d=" M 1121.76 45.52 C 1161.73 45.47 1201.71 45.52 1241.68 45.49 C 1248.82 66.90 1256.44 88.15 1263.65 109.53 C 1276.19 147.39 1289.43 185.00 1302.13 222.80 C 1309.96 246.60 1318.29 270.24 1326.44 293.93 C 1332.20 311.40 1338.60 328.64 1344.90 345.91 C 1351.08 362.14 1358.08 378.35 1368.85 392.14 C 1374.66 400.00 1382.14 406.37 1389.55 412.66 C 1360.35 412.87 1331.15 412.69 1301.96 412.75 C 1285.11 412.61 1268.25 413.03 1251.42 412.54 C 1258.99 401.60 1259.06 387.67 1257.63 374.96 C 1254.69 350.14 1244.81 326.99 1237.32 303.35 C 1194.27 303.12 1151.22 303.31 1108.18 303.25 C 1100.80 324.41 1091.85 345.45 1090.01 368.02 C 1089.27 379.33 1089.66 391.13 1094.32 401.65 C 1095.86 405.58 1098.38 409.00 1100.34 412.72 C 1067.68 412.72 1035.02 412.86 1002.36 412.65 C 1007.80 408.67 1013.70 405.31 1018.65 400.67 C 1035.30 385.70 1048.39 366.78 1056.86 346.07 C 1087.43 255.75 1118.15 165.48 1149.00 75.25 C 1142.83 66.22 1135.91 57.58 1127.49 50.54 C 1125.55 48.90 1123.24 47.64 1121.76 45.52 M 1171.88 117.26 C 1154.67 167.31 1137.58 217.41 1120.46 267.51 C 1155.26 267.49 1190.05 267.51 1224.85 267.50 C 1221.04 256.44 1217.25 245.37 1213.71 234.22 C 1206.13 210.36 1197.91 186.71 1189.61 163.10 C 1184.08 147.69 1179.02 131.98 1171.88 117.26 Z" />
<path fill="#013f7c" opacity="1.00" d=" M 1670.49 45.53 C 1751.25 45.50 1832.02 45.44 1912.78 45.56 C 1912.70 72.36 1912.77 99.17 1912.75 125.97 C 1912.69 130.29 1912.92 134.62 1912.51 138.93 C 1903.29 126.97 1891.91 116.65 1878.80 109.09 C 1858.69 97.01 1835.97 89.98 1812.98 85.93 C 1796.39 83.22 1779.57 81.64 1762.75 81.76 C 1762.74 122.67 1762.75 163.59 1762.75 204.50 C 1784.36 203.10 1805.94 199.17 1826.15 191.24 C 1839.94 185.83 1852.61 177.55 1862.91 166.89 C 1865.59 164.11 1867.93 161.02 1870.68 158.30 C 1870.79 197.64 1870.79 236.99 1870.68 276.34 C 1866.00 271.38 1861.89 265.86 1856.59 261.51 C 1843.76 249.91 1827.76 242.46 1811.22 237.84 C 1795.46 233.22 1779.13 230.71 1762.76 229.69 C 1763.01 277.67 1763.30 325.85 1769.74 373.49 C 1789.42 373.65 1809.09 370.51 1828.05 365.31 C 1849.03 359.33 1869.54 350.39 1886.46 336.37 C 1898.46 326.74 1908.29 314.77 1917.08 302.22 C 1917.47 327.82 1917.14 353.44 1917.25 379.06 C 1917.16 390.30 1917.42 401.55 1917.11 412.78 C 1834.89 412.64 1752.66 412.89 1670.43 412.66 C 1676.52 390.96 1679.30 368.51 1681.43 346.12 C 1684.18 316.51 1684.84 286.76 1685.00 257.05 C 1684.86 205.70 1686.05 154.20 1680.55 103.06 C 1678.55 83.68 1675.62 64.34 1670.49 45.53 Z" />
<path fill="#013f7c" opacity="1.00" d=" M 313.96 421.94 C 315.66 421.25 317.42 420.75 319.17 420.22 C 320.77 427.33 322.30 434.45 323.36 441.66 C 325.27 445.20 325.83 449.23 327.21 452.97 C 330.63 462.99 334.57 472.89 339.70 482.17 C 350.47 502.75 364.01 522.02 380.93 538.04 C 401.30 558.55 426.35 574.32 453.24 584.81 C 456.79 586.36 460.55 587.34 464.15 588.78 C 466.40 589.49 468.66 590.20 470.95 590.82 C 472.25 591.26 473.59 591.53 474.94 591.86 C 476.24 592.37 477.61 592.64 479.00 592.87 C 480.11 593.11 481.19 593.46 482.29 593.79 C 499.33 597.85 516.83 599.58 534.33 599.30 C 534.34 631.47 534.32 663.63 534.34 695.79 C 529.58 695.86 524.82 695.83 520.09 696.29 C 514.09 695.55 508.04 695.61 502.02 695.20 C 499.48 694.19 496.70 694.60 494.05 694.28 C 491.81 693.30 489.32 693.54 486.95 693.29 C 481.02 692.10 474.98 691.20 468.99 690.26 C 460.57 688.34 452.13 686.35 443.74 684.23 C 437.23 682.00 430.67 679.90 424.11 677.81 C 419.17 675.73 414.08 674.04 409.18 671.86 C 405.45 670.37 401.95 668.38 398.24 666.86 C 370.19 653.82 344.28 636.34 321.38 615.56 C 312.45 608.18 304.80 599.46 296.95 590.99 C 271.89 562.55 252.06 529.57 238.87 494.02 C 237.31 488.76 234.48 483.72 234.38 478.14 C 234.16 478.73 233.95 479.34 233.74 479.94 C 233.18 477.65 232.65 475.35 232.10 473.05 C 230.26 463.85 226.92 454.97 225.57 445.66 C 225.75 445.32 226.12 444.65 226.30 444.31 C 231.35 443.24 236.85 443.94 242.04 442.93 C 257.61 441.87 272.56 437.17 287.65 433.62 C 289.40 432.64 291.15 431.64 293.00 430.86 C 300.14 428.25 307.12 425.23 313.96 421.94 Z" />
</g>
<g id="#ba0000ff">
<path fill="#ba0000" opacity="1.00" d=" M 151.19 62.17 C 169.45 54.10 189.08 49.10 208.98 47.45 C 224.23 46.94 239.73 46.41 254.77 49.26 C 266.87 51.17 278.70 54.61 290.21 58.77 C 328.67 73.73 362.06 101.67 382.72 137.47 C 386.74 143.99 389.97 150.93 393.20 157.85 C 393.36 158.39 393.67 159.45 393.83 159.99 C 397.74 168.68 400.50 177.86 402.78 187.11 C 404.02 192.06 404.85 197.11 405.79 202.14 C 409.19 225.30 408.53 249.21 403.13 272.05 C 400.18 284.87 395.66 297.26 390.19 309.21 C 389.16 311.14 388.12 313.06 387.21 315.04 C 368.95 350.24 338.97 379.07 303.22 396.17 C 300.20 397.44 297.24 398.82 294.30 400.24 C 293.51 400.22 291.94 400.17 291.16 400.15 C 290.25 401.97 288.03 401.89 286.36 402.45 C 282.20 404.27 277.83 405.35 273.45 406.48 C 271.31 407.63 269.02 408.52 266.58 408.70 C 261.30 409.06 256.41 411.48 251.11 411.66 C 244.06 412.11 237.08 413.72 230.00 413.13 C 222.35 412.73 214.62 413.90 207.04 412.45 C 203.41 411.82 199.65 412.34 196.08 411.30 C 192.75 410.42 189.40 409.63 185.99 409.19 C 182.73 408.57 179.14 408.64 176.44 406.44 C 174.63 405.99 172.80 405.63 170.97 405.29 C 167.77 404.86 165.23 402.51 162.03 402.04 C 157.97 401.46 154.33 399.51 150.51 398.13 C 136.85 391.87 123.79 384.23 111.99 374.89 C 90.41 358.26 73.01 336.48 60.71 312.21 C 59.81 310.13 58.79 308.12 57.81 306.08 C 53.75 297.03 50.44 287.65 47.79 278.09 C 44.78 266.13 42.44 253.92 42.12 241.57 C 41.78 225.41 41.64 209.05 45.24 193.22 C 51.93 160.58 67.69 129.83 90.45 105.49 C 107.44 87.09 128.25 72.22 151.19 62.17 Z" />
<path fill="#ba0000" opacity="1.00" d=" M 716.37 648.47 C 720.31 648.51 724.25 648.52 728.19 648.45 C 725.57 650.88 723.03 653.59 721.97 657.10 C 719.20 665.99 716.48 674.90 713.76 683.81 C 712.64 687.62 710.74 691.65 712.54 695.59 C 707.56 695.44 702.58 695.45 697.60 695.58 C 698.66 692.35 698.31 688.92 697.28 685.75 C 694.34 676.30 691.49 666.83 688.52 657.39 C 687.48 654.01 685.66 650.92 683.19 648.40 C 687.95 648.56 692.71 648.52 697.47 648.44 C 696.42 651.44 696.63 654.63 697.61 657.62 C 700.90 668.24 704.04 678.90 707.46 689.48 C 710.48 678.94 713.83 668.51 716.97 658.01 C 718.07 654.86 717.94 651.44 716.37 648.47 Z" />
<path fill="#ba0000" opacity="1.00" d=" M 746.12 648.18 C 754.12 645.82 763.20 649.50 767.73 656.40 C 774.32 666.33 773.90 680.89 765.94 689.95 C 759.63 697.27 747.80 698.67 739.99 692.95 C 730.00 685.80 727.92 671.19 732.57 660.36 C 735.02 654.58 740.00 649.82 746.12 648.18 M 748.45 652.64 C 743.21 655.00 741.39 661.17 740.59 666.40 C 739.78 673.79 740.14 682.06 744.63 688.31 C 746.79 691.57 751.48 693.21 754.94 690.98 C 759.64 688.06 761.21 682.22 761.93 677.07 C 762.76 669.93 762.25 662.11 758.16 655.98 C 756.16 652.86 751.98 650.93 748.45 652.64 Z" />
<path fill="#ba0000" opacity="1.00" d=" M 803.54 653.54 C 808.85 647.80 818.24 645.40 825.06 649.94 C 826.96 649.54 828.85 649.11 830.76 648.69 C 830.74 652.55 830.73 656.41 830.78 660.27 C 826.79 656.66 822.59 652.36 816.98 651.71 C 811.27 651.71 808.75 657.78 807.68 662.48 C 806.11 670.60 806.00 679.58 809.92 687.08 C 811.42 690.21 815.06 692.71 818.60 691.45 C 823.94 689.48 827.40 684.63 830.75 680.29 C 830.75 684.82 830.75 689.35 830.74 693.88 C 825.21 696.10 819.04 696.85 813.17 695.81 C 805.48 694.26 799.71 687.58 797.79 680.18 C 795.37 671.13 796.81 660.44 803.54 653.54 Z" />
<path fill="#ba0000" opacity="1.00" d=" M 906.49 648.62 C 914.07 645.74 923.16 648.48 928.22 654.73 C 935.71 664.03 936.00 678.43 929.14 688.15 C 924.39 695.06 914.96 698.29 907.00 695.55 C 898.92 693.09 893.55 685.19 892.40 677.08 C 890.32 666.01 895.19 652.56 906.49 648.62 M 910.43 652.57 C 905.85 654.32 903.85 659.37 902.81 663.79 C 901.38 670.94 901.63 678.68 904.60 685.42 C 906.32 689.32 910.36 693.15 914.97 691.73 C 919.91 690.12 922.16 684.73 923.17 680.04 C 924.66 672.50 924.45 664.20 920.77 657.30 C 918.92 653.67 914.51 650.68 910.43 652.57 Z" />
<path fill="#ba0000" opacity="1.00" d=" M 1189.15 648.45 C 1193.43 648.53 1197.72 648.51 1202.01 648.46 C 1200.94 651.54 1199.91 654.70 1199.99 658.01 C 1199.98 665.35 1200.02 672.70 1199.98 680.05 C 1199.98 682.84 1200.06 685.86 1201.69 688.26 C 1205.37 693.45 1215.24 692.44 1216.89 685.95 C 1218.09 680.73 1217.25 675.32 1217.50 670.03 C 1217.21 662.81 1218.61 655.19 1215.35 648.43 C 1219.67 648.53 1224.01 648.51 1228.34 648.47 C 1226.99 651.48 1225.97 654.68 1226.00 658.02 C 1225.91 666.70 1226.13 675.39 1225.93 684.07 C 1225.62 689.75 1220.72 694.06 1215.51 695.49 C 1208.17 697.72 1198.82 696.49 1193.87 690.12 C 1190.10 685.20 1191.90 678.68 1191.50 672.99 C 1191.03 664.80 1192.97 656.08 1189.15 648.45 Z" />
<path fill="#ba0000" opacity="1.00" d=" M 1292.39 648.48 C 1299.77 645.87 1308.45 648.49 1313.46 654.42 C 1321.58 664.15 1321.62 679.82 1313.53 689.57 C 1307.74 696.60 1296.88 698.63 1288.99 694.03 C 1272.33 684.62 1273.83 654.87 1292.39 648.48 M 1296.25 652.44 C 1292.98 653.46 1290.90 656.49 1289.65 659.50 C 1287.46 665.00 1287.08 671.09 1287.80 676.92 C 1288.43 681.78 1289.87 687.00 1293.77 690.28 C 1296.57 692.75 1301.13 692.47 1303.75 689.85 C 1307.77 686.03 1308.90 680.23 1309.41 674.94 C 1309.79 668.60 1309.17 661.79 1305.66 656.33 C 1303.76 653.24 1299.85 650.99 1296.25 652.44 Z" />
<path fill="#ba0000" opacity="1.00" d=" M 1325.98 648.45 C 1329.89 648.53 1333.82 648.50 1337.75 648.48 C 1342.19 658.65 1346.53 668.86 1350.88 679.07 C 1354.91 669.72 1358.96 660.38 1362.93 651.02 C 1362.69 650.38 1362.21 649.10 1361.96 648.47 C 1366.30 648.51 1370.63 648.52 1374.98 648.46 C 1372.87 658.51 1373.23 668.81 1373.26 679.02 C 1373.39 684.54 1373.84 690.08 1375.03 695.50 C 1371.02 695.50 1367.01 695.50 1363.02 695.49 C 1365.22 683.49 1365.07 671.14 1364.27 659.01 C 1358.58 671.03 1354.03 683.58 1348.35 695.60 C 1343.77 684.49 1338.97 673.47 1334.12 662.47 C 1333.43 667.62 1333.86 672.81 1333.74 677.99 C 1333.75 683.93 1333.64 690.31 1336.90 695.55 C 1332.72 695.48 1328.55 695.45 1324.39 695.58 C 1329.48 688.15 1329.29 678.64 1329.25 670.00 C 1329.13 662.77 1330.10 654.83 1325.98 648.45 Z" />
<path fill="#ba0000" opacity="1.00" d=" M 1396.37 648.48 C 1403.78 645.87 1412.49 648.50 1417.50 654.47 C 1425.57 664.19 1425.61 679.81 1417.55 689.55 C 1411.77 696.58 1400.91 698.63 1393.02 694.05 C 1376.34 684.66 1377.81 654.89 1396.37 648.48 M 1400.34 652.41 C 1396.83 653.48 1394.67 656.79 1393.44 660.04 C 1391.32 665.76 1391.04 672.05 1391.96 678.05 C 1392.69 682.75 1394.33 687.81 1398.36 690.71 C 1401.19 692.78 1405.35 692.25 1407.80 689.80 C 1411.78 685.97 1412.91 680.19 1413.42 674.90 C 1413.78 668.57 1413.17 661.78 1409.66 656.33 C 1407.78 653.27 1403.92 651.02 1400.34 652.41 Z" />
<path fill="#ba0000" opacity="1.00" d=" M 1490.91 648.45 C 1495.56 648.52 1500.22 648.53 1504.88 648.44 C 1503.13 653.74 1505.62 658.98 1507.08 664.01 C 1509.64 672.39 1512.20 680.76 1514.79 689.13 C 1518.39 678.69 1521.33 668.02 1524.61 657.47 C 1525.67 654.47 1525.20 651.33 1524.00 648.47 C 1527.97 648.51 1531.95 648.55 1535.93 648.40 C 1530.86 651.91 1528.88 657.88 1527.47 663.58 C 1524.82 672.19 1522.10 680.79 1519.58 689.45 C 1518.89 691.46 1519.47 693.55 1519.91 695.55 C 1515.00 695.48 1510.11 695.44 1505.22 695.59 C 1507.09 688.13 1502.84 681.14 1501.17 674.06 C 1497.96 665.48 1497.14 655.59 1490.91 648.45 Z" />
<path fill="#ba0000" opacity="1.00" d=" M 1614.99 648.44 C 1620.17 648.55 1625.36 648.49 1630.56 648.49 C 1637.06 660.31 1643.34 672.26 1649.94 684.03 C 1650.07 677.35 1649.96 670.66 1650.01 663.98 C 1649.95 658.59 1649.82 652.81 1646.67 648.19 C 1650.89 648.29 1655.13 648.28 1659.36 648.20 C 1654.37 655.39 1654.61 664.57 1654.49 672.95 C 1654.70 680.54 1653.45 688.85 1657.84 695.57 C 1652.46 695.43 1647.08 695.52 1641.71 695.50 C 1640.79 687.32 1637.24 679.80 1633.49 672.59 C 1630.73 667.81 1628.08 662.88 1624.28 658.83 C 1624.29 667.16 1624.11 675.50 1624.36 683.83 C 1624.57 687.91 1625.19 692.12 1627.58 695.58 C 1623.38 695.45 1619.19 695.47 1615.01 695.57 C 1619.64 688.69 1619.79 680.03 1619.77 672.04 C 1619.77 664.02 1619.71 655.32 1614.99 648.44 Z" />
<path fill="#ba0000" opacity="1.00" d=" M 1757.20 652.22 C 1763.02 646.88 1772.33 645.92 1779.10 650.04 C 1780.97 649.62 1782.85 649.18 1784.75 648.76 C 1784.74 652.87 1784.73 656.98 1784.77 661.10 C 1781.31 657.68 1777.73 654.01 1773.00 652.44 C 1769.38 651.25 1764.61 652.45 1762.79 656.01 C 1761.74 658.76 1763.83 661.46 1766.00 662.96 C 1771.17 666.59 1776.84 669.46 1781.98 673.14 C 1785.61 675.77 1787.30 680.66 1786.23 685.00 C 1784.78 691.04 1779.06 695.42 1773.03 696.11 C 1768.38 696.68 1763.78 695.43 1759.31 694.34 C 1757.59 693.83 1755.87 694.65 1754.23 694.94 C 1754.25 689.96 1754.28 684.98 1754.19 680.00 C 1757.88 685.01 1762.07 691.38 1769.02 691.53 C 1773.23 691.92 1778.05 688.73 1777.75 684.17 C 1776.89 680.41 1772.82 679.06 1770.02 677.06 C 1764.92 673.56 1758.84 671.01 1755.18 665.82 C 1752.01 661.66 1753.59 655.57 1757.20 652.22 Z" />
<path fill="#ba0000" opacity="1.00" d=" M 1874.77 648.21 C 1880.06 648.27 1885.35 648.29 1890.64 648.19 C 1890.17 651.90 1891.60 655.45 1893.38 658.63 C 1895.70 662.77 1897.68 667.09 1900.05 671.21 C 1902.96 666.01 1905.71 660.71 1908.30 655.33 C 1909.41 653.13 1909.66 650.66 1909.54 648.23 C 1913.07 648.26 1916.60 648.26 1920.15 648.22 C 1912.64 653.94 1909.35 663.02 1904.87 670.98 C 1903.78 673.20 1902.21 675.41 1902.47 678.03 C 1902.45 683.88 1902.90 689.78 1904.23 695.50 C 1900.24 695.49 1896.25 695.49 1892.28 695.52 C 1893.42 690.41 1893.79 685.17 1893.98 679.95 C 1894.07 678.09 1892.77 676.57 1892.06 674.97 C 1886.99 665.67 1883.33 655.02 1874.77 648.21 Z" />
<path fill="#ba0000" opacity="1.00" d=" M 778.47 648.50 C 782.48 648.49 786.50 648.49 790.52 648.50 C 788.58 657.88 788.71 667.52 788.76 677.05 C 788.92 683.22 789.24 689.43 790.52 695.50 C 786.50 695.50 782.49 695.50 778.47 695.50 C 780.64 685.81 780.23 675.83 780.25 665.98 C 780.14 660.12 779.76 654.23 778.47 648.50 Z" />
<path fill="#ba0000" opacity="1.00" d=" M 837.72 648.50 C 848.07 648.52 858.43 648.43 868.79 648.55 C 868.73 652.43 868.71 656.31 868.81 660.19 C 863.45 654.47 855.23 653.11 847.75 652.93 C 847.74 658.23 847.74 663.53 847.76 668.84 C 853.31 668.36 859.02 667.07 863.33 663.30 C 863.20 668.11 863.19 672.93 863.34 677.75 C 859.24 673.63 853.32 672.45 847.75 671.91 C 847.67 678.15 847.90 684.41 848.64 690.62 C 856.25 690.38 864.17 687.90 869.24 681.93 C 869.26 686.43 869.22 690.93 869.28 695.43 C 858.76 695.51 848.23 695.62 837.72 695.38 C 839.46 687.71 839.57 679.79 839.50 671.96 C 839.57 664.12 839.44 656.19 837.72 648.50 Z" />
<path fill="#ba0000" opacity="1.00" d=" M 940.24 648.49 C 950.57 648.51 960.91 648.49 971.25 648.50 C 971.25 652.34 971.23 656.18 971.26 660.03 C 965.85 654.57 957.87 653.18 950.51 652.91 C 950.50 658.22 950.48 663.54 950.52 668.86 C 955.96 668.24 961.82 667.23 965.84 663.15 C 965.69 668.05 965.70 672.95 965.83 677.86 C 961.90 673.62 956.01 672.44 950.51 671.90 C 950.46 679.78 950.67 687.74 952.27 695.50 C 948.25 695.50 944.24 695.50 940.23 695.50 C 941.90 687.79 942.09 679.86 942.00 672.00 C 942.09 664.13 941.90 656.21 940.24 648.49 Z" />
<path fill="#ba0000" opacity="1.00" d=" M 993.50 648.50 C 1006.08 648.50 1018.66 648.49 1031.25 648.50 C 1031.25 652.31 1031.22 656.12 1031.28 659.93 C 1027.59 656.22 1022.63 654.09 1017.49 653.40 C 1016.09 667.37 1015.84 681.65 1018.36 695.51 C 1014.36 695.50 1010.37 695.49 1006.39 695.51 C 1009.00 681.67 1008.37 667.39 1007.31 653.42 C 1002.15 654.14 997.14 656.26 993.44 659.99 C 993.52 656.16 993.49 652.33 993.50 648.50 Z" />
<path fill="#ba0000" opacity="1.00" d=" M 1037.47 648.50 C 1041.47 648.49 1045.47 648.50 1049.48 648.49 C 1048.07 654.79 1047.80 661.27 1047.69 667.70 C 1053.87 667.81 1060.06 667.71 1066.24 667.76 C 1066.31 661.30 1065.78 654.83 1064.53 648.49 C 1068.53 648.50 1072.53 648.49 1076.53 648.50 C 1075.23 654.23 1074.85 660.11 1074.75 665.97 C 1074.76 675.83 1074.36 685.81 1076.53 695.50 C 1072.52 695.50 1068.53 695.49 1064.53 695.51 C 1066.04 687.86 1066.33 680.01 1066.22 672.23 C 1060.05 672.28 1053.89 672.20 1047.73 672.28 C 1047.73 680.05 1047.93 687.87 1049.47 695.51 C 1045.46 695.49 1041.46 695.50 1037.47 695.50 C 1039.09 688.11 1039.34 680.51 1039.25 672.97 C 1039.31 664.79 1039.28 656.52 1037.47 648.50 Z" />
<path fill="#ba0000" opacity="1.00" d=" M 1083.72 648.50 C 1094.07 648.52 1104.43 648.43 1114.78 648.55 C 1114.73 652.43 1114.70 656.32 1114.82 660.21 C 1109.47 654.46 1101.23 653.11 1093.75 652.93 C 1093.74 658.23 1093.73 663.54 1093.76 668.85 C 1099.31 668.34 1105.03 667.08 1109.33 663.28 C 1109.20 668.10 1109.19 672.92 1109.34 677.75 C 1105.23 673.63 1099.32 672.44 1093.75 671.91 C 1093.67 678.15 1093.90 684.41 1094.64 690.62 C 1102.25 690.39 1110.12 687.89 1115.23 681.98 C 1115.26 686.47 1115.23 690.96 1115.27 695.46 C 1104.74 695.46 1094.21 695.67 1083.70 695.35 C 1085.04 689.68 1085.38 683.83 1085.50 678.02 C 1085.47 668.17 1085.91 658.18 1083.72 648.50 Z" />
<path fill="#ba0000" opacity="1.00" d=" M 1153.11 648.45 C 1158.15 648.53 1163.20 648.49 1168.26 648.49 C 1171.83 658.68 1175.21 668.92 1178.75 679.12 C 1180.84 684.88 1182.22 691.29 1187.00 695.56 C 1181.93 695.44 1176.87 695.55 1171.81 695.46 C 1173.17 690.71 1171.09 686.06 1169.72 681.59 C 1163.53 681.41 1157.34 681.52 1151.15 681.52 C 1149.50 685.98 1147.65 690.96 1149.90 695.57 C 1145.90 695.47 1141.90 695.45 1137.91 695.59 C 1143.22 692.08 1145.25 685.89 1147.01 680.13 C 1150.24 670.81 1153.35 661.45 1156.59 652.13 C 1155.43 650.90 1154.25 649.66 1153.11 648.45 M 1160.25 655.04 C 1157.69 662.34 1155.26 669.69 1152.75 677.00 C 1157.84 676.99 1162.93 677.00 1168.04 677.00 C 1165.33 669.72 1163.36 662.17 1160.25 655.04 Z" />
<path fill="#ba0000" opacity="1.00" d=" M 1234.75 648.51 C 1247.33 648.49 1259.91 648.50 1272.50 648.50 C 1272.49 652.32 1272.46 656.15 1272.56 659.97 C 1268.86 656.25 1263.91 654.06 1258.74 653.41 C 1257.34 667.38 1257.09 681.66 1259.61 695.51 C 1255.61 695.49 1251.62 695.49 1247.64 695.51 C 1250.24 681.66 1249.64 667.38 1248.54 653.40 C 1243.40 654.15 1238.46 656.28 1234.71 659.92 C 1234.76 656.11 1234.74 652.31 1234.75 648.51 Z" />
<path fill="#ba0000" opacity="1.00" d=" M 1428.50 648.50 C 1441.08 648.50 1453.66 648.49 1466.25 648.50 C 1466.25 652.33 1466.22 656.15 1466.29 659.98 C 1462.63 656.21 1457.63 654.10 1452.49 653.40 C 1451.09 667.37 1450.84 681.65 1453.36 695.51 C 1449.36 695.49 1445.37 695.49 1441.39 695.51 C 1443.99 681.66 1443.38 667.38 1442.29 653.39 C 1437.15 654.17 1432.14 656.25 1428.44 659.98 C 1428.52 656.15 1428.49 652.33 1428.50 648.50 Z" />
<path fill="#ba0000" opacity="1.00" d=" M 1472.24 648.49 C 1476.24 648.50 1480.25 648.49 1484.27 648.50 C 1481.73 663.98 1481.74 680.01 1484.26 695.50 C 1480.25 695.50 1476.24 695.50 1472.24 695.51 C 1474.43 685.48 1473.98 675.16 1473.99 664.98 C 1473.84 659.44 1473.42 653.90 1472.24 648.49 Z" />
<path fill="#ba0000" opacity="1.00" d=" M 1542.47 648.50 C 1552.81 648.50 1563.15 648.49 1573.50 648.50 C 1573.50 652.40 1573.47 656.29 1573.54 660.19 C 1568.21 654.44 1559.97 653.13 1552.51 652.92 C 1552.50 658.23 1552.47 663.55 1552.53 668.87 C 1558.04 668.28 1563.83 667.16 1568.03 663.23 C 1567.98 668.09 1567.96 672.96 1568.05 677.83 C 1564.05 673.56 1558.05 672.49 1552.51 671.90 C 1552.42 678.14 1552.67 684.39 1553.37 690.59 C 1561.01 690.42 1568.95 687.88 1574.00 681.87 C 1573.98 686.43 1574.06 690.99 1573.92 695.56 C 1563.43 695.42 1552.95 695.55 1542.47 695.49 C 1544.76 685.16 1544.22 674.52 1544.21 664.03 C 1544.02 658.81 1543.63 653.59 1542.47 648.50 Z" />
<path fill="#ba0000" opacity="1.00" d=" M 1596.47 648.50 C 1600.48 648.49 1604.49 648.49 1608.52 648.50 C 1606.53 658.19 1606.70 668.15 1606.77 678.00 C 1606.97 683.86 1607.29 689.75 1608.52 695.50 C 1604.49 695.50 1600.48 695.50 1596.47 695.50 C 1598.63 685.82 1598.23 675.86 1598.25 666.02 C 1598.14 660.14 1597.76 654.24 1596.47 648.50 Z" />
<path fill="#ba0000" opacity="1.00" d=" M 1665.75 648.50 C 1675.01 649.13 1685.58 646.32 1693.56 652.46 C 1707.01 662.15 1705.46 685.90 1690.59 693.46 C 1682.79 697.06 1673.91 694.92 1665.63 695.51 C 1667.15 689.13 1667.28 682.54 1667.49 676.02 C 1667.50 666.83 1667.80 657.52 1665.75 648.50 M 1676.03 653.23 C 1675.97 665.74 1675.99 678.25 1676.02 690.76 C 1679.88 690.58 1684.51 691.64 1687.57 688.59 C 1692.28 684.14 1693.31 677.18 1693.27 671.00 C 1693.01 665.24 1691.74 658.76 1687.02 654.95 C 1683.94 652.41 1679.68 653.44 1676.03 653.23 Z" />
<path fill="#ba0000" opacity="1.00" d=" M 1708.42 648.46 C 1712.74 648.52 1717.08 648.52 1721.42 648.45 C 1720.32 651.17 1719.28 654.00 1719.28 656.98 C 1719.17 664.32 1719.30 671.68 1719.23 679.03 C 1719.23 682.07 1719.12 685.37 1720.81 688.06 C 1724.36 693.49 1734.50 692.51 1736.15 685.91 C 1737.37 680.73 1736.48 675.32 1736.75 670.06 C 1736.44 662.84 1737.90 655.19 1734.58 648.45 C 1738.90 648.52 1743.23 648.52 1747.57 648.45 C 1743.79 656.12 1745.71 664.83 1745.25 673.02 C 1744.90 679.26 1746.84 686.84 1741.60 691.61 C 1734.13 698.31 1721.02 698.31 1713.90 691.08 C 1709.21 686.24 1711.12 679.06 1710.75 673.04 C 1710.27 664.84 1712.23 656.11 1708.42 648.46 Z" />
<path fill="#ba0000" opacity="1.00" d=" M 1791.75 648.50 C 1804.33 648.49 1816.91 648.50 1829.50 648.50 C 1829.49 652.32 1829.46 656.15 1829.56 659.98 C 1825.85 656.26 1820.91 654.03 1815.72 653.43 C 1814.35 667.40 1814.08 681.66 1816.61 695.51 C 1812.61 695.49 1808.62 695.49 1804.64 695.51 C 1807.24 681.66 1806.63 667.38 1805.55 653.41 C 1800.40 654.16 1795.40 656.25 1791.71 659.98 C 1791.76 656.15 1791.74 652.33 1791.75 648.50 Z" />
<path fill="#ba0000" opacity="1.00" d=" M 1835.72 648.50 C 1845.08 648.90 1855.10 647.20 1863.90 651.21 C 1870.10 653.92 1871.43 662.63 1867.86 667.92 C 1866.36 670.45 1863.60 671.74 1861.01 672.83 C 1868.30 678.46 1866.61 689.70 1873.84 695.58 C 1868.82 695.44 1863.80 695.49 1858.79 695.53 C 1860.06 690.79 1858.11 686.01 1856.35 681.67 C 1854.56 677.46 1850.44 674.80 1846.05 674.01 C 1845.89 681.22 1846.30 688.47 1847.81 695.53 C 1843.77 695.48 1839.74 695.50 1835.73 695.50 C 1837.93 685.19 1837.51 674.57 1837.44 664.10 C 1837.24 658.86 1836.87 653.62 1835.72 648.50 M 1846.00 651.93 C 1845.99 658.31 1845.99 664.69 1846.00 671.07 C 1849.84 671.01 1854.02 670.72 1857.15 668.20 C 1861.34 665.06 1861.36 657.92 1857.30 654.67 C 1854.16 652.09 1849.85 652.04 1846.00 651.93 Z" />
</g>
<g id="#303030ff">
<path fill="#303030" opacity="1.00" d=" M 432.36 233.24 C 465.37 233.22 498.37 233.34 531.37 233.18 C 531.47 265.99 525.95 298.77 515.91 329.99 C 514.87 333.72 513.30 337.26 512.18 340.96 C 499.93 374.18 481.84 405.15 459.22 432.37 C 453.11 440.15 446.01 447.05 439.03 454.04 C 422.68 470.86 403.91 485.23 384.00 497.59 C 383.21 496.14 382.43 494.70 381.45 493.39 C 362.50 467.25 350.93 435.87 348.27 403.70 C 359.55 394.27 370.88 384.73 380.29 373.36 C 413.78 334.98 432.96 284.25 432.36 233.24 Z" />
<path fill="#303030" opacity="1.00" d=" M 150.51 398.13 C 154.33 399.51 157.97 401.46 162.03 402.04 C 165.23 402.51 167.77 404.86 170.97 405.29 C 172.80 405.63 174.63 405.99 176.44 406.44 C 179.14 408.64 182.73 408.57 185.99 409.19 C 189.40 409.63 192.75 410.42 196.08 411.30 C 199.65 412.34 203.41 411.82 207.04 412.45 C 214.62 413.90 222.35 412.73 230.00 413.13 C 237.08 413.72 244.06 412.11 251.11 411.66 C 256.41 411.48 261.30 409.06 266.58 408.70 C 269.02 408.52 271.31 407.63 273.45 406.48 C 277.83 405.35 282.20 404.27 286.36 402.45 C 288.03 401.89 290.25 401.97 291.16 400.15 C 291.94 400.17 293.51 400.22 294.30 400.24 C 291.85 401.08 289.46 402.05 287.46 403.74 C 283.41 403.02 280.31 406.90 276.43 406.50 C 275.77 406.91 275.11 407.33 274.46 407.75 C 270.18 407.02 266.26 409.71 262.06 410.11 C 255.34 410.99 248.76 412.77 241.98 413.18 C 222.66 414.72 203.02 413.88 184.14 409.44 C 179.94 408.17 175.71 406.99 171.35 406.38 C 169.55 405.58 167.84 404.36 165.76 404.63 C 160.47 402.89 155.72 399.81 150.33 398.27 L 150.51 398.13 Z" />
<path fill="#303030" opacity="1.00" d=" M 313.96 421.94 C 315.92 420.87 317.84 419.48 320.17 419.52 C 320.51 426.15 321.86 432.71 323.72 439.07 C 327.13 454.07 333.09 468.33 339.70 482.17 C 334.57 472.89 330.63 462.99 327.21 452.97 C 325.83 449.23 325.27 445.20 323.36 441.66 C 322.30 434.45 320.77 427.33 319.17 420.22 C 317.42 420.75 315.66 421.25 313.96 421.94 Z" />
<path fill="#303030" opacity="1.00" d=" M 286.62 432.29 C 288.86 432.70 290.93 431.48 293.00 430.86 C 291.15 431.64 289.40 432.64 287.65 433.62 C 272.56 437.17 257.61 441.87 242.04 442.93 C 236.85 443.94 231.35 443.24 226.30 444.31 C 226.12 444.65 225.75 445.32 225.57 445.66 C 226.92 454.97 230.26 463.85 232.10 473.05 C 228.81 463.50 226.81 453.52 224.66 443.69 C 227.85 443.47 230.91 442.50 234.09 443.26 C 239.05 442.29 244.15 442.83 249.09 441.71 C 260.33 440.14 271.44 437.71 282.31 434.44 C 283.83 433.90 285.20 433.03 286.62 432.29 Z" />
<path fill="#303030" opacity="1.00" d=" M 1198.45 455.56 C 1215.56 452.99 1233.61 458.02 1246.74 469.32 C 1262.55 482.47 1271.30 502.75 1272.90 523.00 C 1274.32 540.97 1271.54 559.72 1262.53 575.54 C 1254.05 591.08 1238.73 602.68 1221.46 606.60 C 1203.17 611.01 1183.05 606.28 1168.45 594.48 C 1155.75 584.50 1147.66 569.56 1143.96 554.01 C 1139.20 532.33 1140.99 508.61 1151.93 489.00 C 1161.28 471.59 1178.70 458.34 1198.45 455.56 M 1202.28 470.44 C 1194.94 473.27 1190.20 480.09 1186.96 486.94 C 1181.00 500.08 1179.29 514.68 1178.99 528.97 C 1178.85 542.49 1180.08 556.16 1184.18 569.09 C 1186.62 576.47 1190.00 583.87 1195.82 589.22 C 1199.30 592.49 1204.08 594.75 1208.96 594.13 C 1214.29 593.58 1218.70 589.97 1222.01 585.98 C 1226.23 580.69 1228.94 574.38 1230.94 567.97 C 1235.02 554.39 1236.10 540.08 1235.69 525.96 C 1235.22 512.72 1233.34 499.28 1227.88 487.10 C 1225.12 481.32 1221.47 475.62 1215.98 472.10 C 1211.98 469.50 1206.75 468.59 1202.28 470.44 Z" />
<path fill="#303030" opacity="1.00" d=" M 731.39 457.79 C 747.49 457.72 763.59 457.71 779.69 457.80 C 791.78 493.49 803.89 529.18 816.10 564.83 C 820.27 575.91 823.47 587.67 830.69 597.26 C 833.04 600.54 836.15 603.13 839.19 605.76 C 820.66 605.76 802.13 605.70 783.60 605.79 C 787.99 598.17 786.17 589.01 784.10 580.97 C 782.36 574.39 779.86 568.05 777.78 561.58 C 760.45 561.39 743.12 561.57 725.80 561.49 C 722.18 571.68 717.70 582.06 718.35 593.11 C 718.48 597.60 720.12 601.89 722.58 605.62 C 709.35 605.92 696.12 605.65 682.89 605.76 C 692.99 599.68 700.54 589.84 704.98 579.02 C 717.43 542.67 729.56 506.20 742.22 469.93 C 739.46 465.18 735.43 461.42 731.39 457.79 M 751.42 486.78 C 744.44 506.90 737.57 527.07 730.72 547.24 C 744.74 547.27 758.77 547.25 772.79 547.25 C 768.19 533.79 763.98 520.21 759.18 506.83 C 756.72 500.10 754.65 493.19 751.42 486.78 Z" />
<path fill="#303030" opacity="1.00" d=" M 859.03 457.74 C 875.16 457.76 891.30 457.74 907.44 457.75 C 901.92 466.80 899.84 477.51 899.76 488.00 C 899.73 512.00 899.75 536.01 899.75 560.02 C 900.01 568.84 900.65 578.42 906.16 585.74 C 913.15 595.34 929.53 595.02 936.30 585.33 C 941.87 577.47 942.40 567.34 942.26 558.04 C 942.25 535.70 942.25 513.37 942.26 491.04 C 942.73 479.53 940.75 467.64 934.58 457.75 C 950.78 457.76 966.99 457.73 983.19 457.76 C 976.50 468.18 975.10 480.86 975.24 492.97 C 975.26 514.33 975.24 535.70 975.25 557.06 C 975.14 564.06 975.92 571.30 973.46 578.02 C 969.12 590.78 957.66 599.93 945.19 604.16 C 928.98 609.80 910.77 609.59 894.77 603.36 C 884.46 599.31 875.09 591.95 870.25 581.81 C 867.69 576.61 866.75 570.76 866.74 565.00 C 866.77 540.00 866.73 514.99 866.76 489.99 C 866.99 478.83 864.66 467.46 859.03 457.74 Z" />
<path fill="#303030" opacity="1.00" d=" M 1003.01 457.75 C 1042.60 457.80 1082.19 457.64 1121.78 457.83 C 1121.74 470.31 1121.69 482.79 1121.81 495.27 C 1111.84 482.64 1096.21 476.17 1080.69 473.73 C 1077.23 500.65 1077.89 527.87 1078.28 554.94 C 1078.52 571.99 1079.35 589.20 1083.81 605.75 C 1069.50 605.74 1055.19 605.74 1040.87 605.75 C 1045.01 588.84 1046.04 571.37 1046.50 554.03 C 1046.54 527.26 1047.40 500.35 1044.04 473.72 C 1028.58 476.19 1012.99 482.58 1003.04 495.15 C 1002.95 482.68 1003.02 470.22 1003.01 457.75 Z" />
<path fill="#303030" opacity="1.00" d=" M 1343.52 457.75 C 1357.83 457.75 1372.15 457.75 1386.47 457.75 C 1380.36 482.32 1380.70 507.87 1380.75 533.02 C 1380.74 557.30 1380.46 582.03 1386.58 605.71 C 1372.21 605.75 1357.85 605.82 1343.49 605.67 C 1349.76 581.65 1348.99 556.59 1349.52 531.98 C 1349.02 507.19 1349.78 481.96 1343.52 457.75 Z" />
<path fill="#303030" opacity="1.00" d=" M 1406.31 457.76 C 1424.49 457.74 1442.67 457.75 1460.85 457.75 C 1479.28 491.81 1497.95 525.74 1516.43 559.76 C 1517.29 546.87 1517.47 533.92 1517.00 521.00 C 1516.99 508.65 1517.25 496.26 1515.90 483.97 C 1514.85 474.61 1512.13 465.15 1506.10 457.74 C 1519.74 457.77 1533.39 457.72 1547.04 457.77 C 1540.96 464.55 1537.60 473.20 1535.56 481.95 C 1532.83 492.36 1532.21 503.16 1531.63 513.87 C 1530.86 528.89 1531.35 543.93 1531.24 558.96 C 1531.38 567.33 1531.94 575.70 1533.02 584.01 C 1534.01 591.97 1537.58 599.42 1542.45 605.74 C 1524.47 605.73 1506.49 605.79 1488.51 605.71 C 1486.53 588.77 1481.08 572.46 1474.00 557.00 C 1466.33 539.95 1457.61 523.32 1447.19 507.78 C 1443.93 503.05 1440.55 498.37 1436.60 494.20 C 1436.51 507.46 1436.11 520.72 1436.25 533.98 C 1436.41 549.98 1435.51 566.09 1437.99 581.97 C 1438.88 590.57 1442.04 598.82 1447.28 605.73 C 1433.53 605.80 1419.79 605.69 1406.05 605.78 C 1413.92 597.59 1416.99 586.27 1419.24 575.45 C 1423.06 555.49 1422.49 535.05 1421.87 514.84 C 1421.27 499.91 1419.96 484.69 1414.32 470.70 C 1412.52 465.90 1409.59 461.65 1406.31 457.76 Z" />
<path fill="#303030" opacity="1.00" d=" M 1567.24 457.74 C 1583.14 457.75 1599.05 457.76 1614.95 457.74 C 1639.08 456.70 1662.75 470.82 1673.92 492.11 C 1683.13 508.63 1685.25 528.37 1682.32 546.85 C 1679.28 564.61 1670.12 581.69 1655.63 592.65 C 1648.08 598.42 1639.23 602.44 1629.94 604.40 C 1621.06 606.27 1611.96 605.65 1602.96 605.75 C 1591.05 605.71 1579.14 605.81 1567.24 605.70 C 1572.70 584.94 1572.55 563.30 1573.01 542.01 C 1572.74 513.89 1574.17 485.25 1567.24 457.74 M 1606.75 472.51 C 1606.75 512.00 1606.74 551.50 1606.75 590.99 C 1612.51 590.77 1618.77 591.97 1624.04 589.01 C 1630.68 585.33 1634.88 578.54 1637.84 571.76 C 1644.19 556.40 1645.35 539.43 1644.53 522.99 C 1643.75 510.73 1641.57 498.26 1635.87 487.27 C 1632.42 480.91 1627.34 474.55 1619.95 472.85 C 1615.59 472.11 1611.14 472.65 1606.75 472.51 Z" />
<path fill="#303030" opacity="1.00" d=" M 1703.43 457.75 C 1717.73 457.75 1732.03 457.74 1746.33 457.76 C 1740.09 482.65 1740.56 508.57 1740.50 534.05 C 1740.58 557.96 1740.42 582.27 1746.38 605.59 C 1732.03 605.88 1717.67 605.79 1703.33 605.64 C 1709.13 582.96 1709.07 559.32 1709.25 536.07 C 1709.16 509.91 1709.68 483.34 1703.43 457.75 Z" />
<path fill="#303030" opacity="1.00" d=" M 1814.07 457.74 C 1830.25 457.82 1846.45 457.61 1862.64 457.85 C 1875.34 495.20 1887.89 532.61 1900.85 569.87 C 1905.43 583.05 1910.43 597.19 1922.16 605.78 C 1903.63 605.73 1885.09 605.71 1866.56 605.79 C 1870.62 598.81 1869.33 590.44 1867.55 582.98 C 1865.88 575.68 1862.91 568.78 1860.83 561.61 C 1843.47 561.35 1826.10 561.58 1808.74 561.49 C 1804.92 572.23 1800.15 583.29 1801.47 594.95 C 1801.77 598.83 1803.47 602.40 1805.55 605.64 C 1792.33 605.91 1779.11 605.64 1765.89 605.77 C 1774.51 600.62 1781.06 592.61 1785.73 583.83 C 1788.44 578.79 1789.88 573.23 1791.75 567.87 C 1802.73 535.22 1814.00 502.65 1824.95 470.01 C 1822.64 465.03 1818.22 461.24 1814.07 457.74 M 1834.37 486.68 C 1827.42 506.85 1820.57 527.06 1813.62 547.23 C 1827.65 547.29 1841.68 547.23 1855.72 547.26 C 1851.50 534.79 1847.59 522.21 1843.17 509.81 C 1840.37 502.06 1837.93 494.13 1834.37 486.68 Z" />
</g>
</svg>
